<?xml version="1.0" encoding="UTF-8"?>
<svg version="1.1" xmlns="http://www.w3.org/2000/svg" width="1000" height="1000">
<path d="M0 0 C5.02690134 0.00020664 10.05379719 -0.00533949 15.08069587 -0.01005757 C24.89936145 -0.01830887 34.71802102 -0.0211099 44.53668979 -0.02166995 C52.53209003 -0.0221478 60.52748832 -0.02421589 68.52288795 -0.02737057 C91.27447886 -0.03616254 114.02606509 -0.0407923 136.77765772 -0.0400401 C138.61148187 -0.03998016 138.61148187 -0.03998016 140.48235297 -0.03991902 C142.31845969 -0.0398577 142.31845969 -0.0398577 144.19165948 -0.03979514 C164.00189143 -0.03938922 183.81210432 -0.04894903 203.62233075 -0.06305739 C224.04484985 -0.07748508 244.46735969 -0.08432406 264.889884 -0.08346361 C276.32270036 -0.08313381 287.75549675 -0.08578459 299.18830848 -0.09664166 C308.92647921 -0.10583138 318.66462092 -0.10785354 328.40279415 -0.10113224 C333.3531425 -0.09790896 338.30343545 -0.09765439 343.25377822 -0.10648549 C361.90010453 -0.13757569 380.49437337 0.01068105 399.11571479 1.05119121 C399.83900197 1.09112329 400.56228916 1.13105536 401.30749413 1.1721975 C463.52642169 4.70479199 529.87252224 20.6081555 577.48772407 63.14538372 C577.98643012 63.58527629 578.48513618 64.02516887 578.99895453 64.47839153 C637.00439236 115.81593098 657.32632644 190.85278937 661.94708149 265.79507293 C662.71929146 278.84427625 662.76900498 291.88265618 662.74651313 304.9517802 C662.74813767 307.67287316 662.75273103 310.39395955 662.75713325 313.11504924 C662.76589435 319.65144274 662.76416578 326.18778958 662.75830796 332.72418468 C662.7537376 338.05069008 662.75320136 343.37718265 662.7553556 348.70368946 C662.75566206 349.47012664 662.75596853 350.23656383 662.75628428 351.02622639 C662.75692392 352.58463244 662.75757235 354.14303848 662.75822946 355.70144451 C662.76389394 370.21775336 662.75743671 384.7340367 662.74662873 399.25034136 C662.7376986 411.6262569 662.73924845 424.00213487 662.74846625 436.37804973 C662.75924141 450.85106336 662.76334311 465.32405479 662.75724173 479.79707187 C662.75660482 481.34913532 662.75597608 482.90119876 662.7553556 484.45326221 C662.75504705 485.21632979 662.75473849 485.97939737 662.75442059 486.76558821 C662.75271508 492.06689465 662.75560154 497.36818648 662.7603147 502.66949069 C662.81496393 570.22507652 661.40313339 637.93630209 631.48772407 700.14538372 C631.11679633 700.91769329 630.7458686 701.69000286 630.36370063 702.48571575 C604.22327398 756.02309448 557.21022057 794.86763698 501.22209907 814.30651653 C486.55161406 819.28696875 471.68177707 823.1506349 456.48772407 826.14538372 C455.51770453 826.33825969 454.547685 826.53113567 453.54827094 826.72985637 C446.556025 828.08552001 439.54469986 829.18572146 432.48772407 830.14538372 C431.43294868 830.29104778 430.37817328 830.43671184 429.291435 830.58678997 C406.75947802 833.53700787 384.11625267 833.59106757 361.43010688 833.67931926 C360.15638221 833.68944545 358.88265754 833.69957164 357.57033515 833.71000469 C355.18174813 833.72873128 352.79303181 833.73618945 350.40438056 833.72956645 C334.83670584 833.8748499 319.5651853 837.41223064 307.96038032 848.36413372 C302.52348262 854.47956998 297.87997253 861.24059559 293.12004828 867.88610637 C291.00682508 870.81098934 288.82348479 873.66839054 286.61272407 876.52038372 C285.82639594 877.53616497 285.04006782 878.55194622 284.22991157 879.59850872 C283.80419868 880.14829387 283.37848578 880.69807903 282.9398725 881.26452434 C274.08702243 892.73095961 265.34980076 904.27868354 256.78874946 915.96447551 C251.64580253 922.9685542 246.39295963 929.88608491 241.10588813 936.78185833 C236.94561483 942.20682972 236.94561483 942.20682972 232.89788032 947.71569622 C219.99805357 965.58417233 203.75195126 979.21873062 181.48772407 983.14538372 C160.66499527 984.70381031 143.55194676 981.04736825 126.80022407 967.89538372 C116.70190746 959.19395241 109.04111013 949.03386385 101.26116157 938.30944622 C97.41992884 933.02347535 93.46353422 927.83051477 89.48772407 922.64538372 C84.4205787 916.02640231 79.41345195 909.37027483 74.48772407 902.64538372 C68.85618864 894.95861984 63.11645919 887.3602537 57.32341743 879.79455364 C53.69605041 875.05515355 50.10375597 870.29404228 46.55803657 865.49328411 C35.29138844 850.28440369 23.89684129 837.90161785 4.21076179 834.59495342 C0.68417723 834.16910612 -2.70669027 834.00148457 -6.2566607 833.97179973 C-7.56075387 833.95830989 -8.86484704 833.94482006 -10.20845819 833.93092144 C-11.24334721 833.92333151 -11.24334721 833.92333151 -12.29914308 833.91558826 C-14.5049435 833.89890219 -16.71059178 833.87564057 -18.91631341 833.85069072 C-25.18625715 833.78079962 -31.45627513 833.72113792 -37.72638726 833.66857708 C-63.8195833 833.44405094 -89.85496317 832.75245695 -115.76227593 829.33288372 C-116.41140954 829.24890331 -117.06054315 829.1649229 -117.72934747 829.07839763 C-160.79775243 823.47908399 -204.75090688 812.50008198 -239.51227593 785.14538372 C-240.9141314 784.07417278 -240.9141314 784.07417278 -242.34430718 782.98132122 C-259.64363939 769.36954337 -272.41347559 753.00166136 -283.51227593 734.14538372 C-284.04183892 733.2532719 -284.04183892 733.2532719 -284.58210015 732.34313762 C-308.77935021 691.04912305 -316.21884196 640.12119803 -319.51227593 593.14538372 C-319.59530843 592.01471981 -319.67834092 590.8840559 -319.76388955 589.71912944 C-320.71708606 575.60457906 -320.66924028 561.48674525 -320.6723187 547.34628332 C-320.67419555 543.62402769 -320.68175553 539.90178237 -320.68845391 536.17953289 C-320.70193362 528.06700584 -320.70804595 519.95448381 -320.71246457 511.84194744 C-320.71524529 506.75632425 -320.71948583 501.67070291 -320.72396874 496.58508098 C-320.73614904 482.44728517 -320.74645002 468.30949081 -320.74984384 454.17168987 C-320.7500634 453.26991567 -320.75028297 452.36814147 -320.75050919 451.43904078 C-320.75072747 450.53535832 -320.75094574 449.63167586 -320.75117064 448.70060909 C-320.75161407 446.87002615 -320.75206063 445.03944321 -320.75251031 443.20886028 C-320.75273174 442.30086728 -320.75295317 441.39287428 -320.75318131 440.45736635 C-320.75711956 425.78304222 -320.77454939 411.10876803 -320.79786983 396.43446314 C-320.82173296 381.29382102 -320.83405246 366.1532038 -320.83521175 351.01254261 C-320.8361203 342.54192298 -320.84166173 334.07136843 -320.86003137 325.60076702 C-320.87563624 318.38067343 -320.88043562 311.16066502 -320.87229326 303.94055772 C-320.86845691 300.27447391 -320.86895875 296.60856047 -320.88335061 292.94249904 C-320.93996785 277.59588262 -320.49383424 262.40396186 -319.13452935 247.11999309 C-319.04266083 246.08017709 -319.04266083 246.08017709 -318.94893637 245.0193547 C-315.45772797 206.34401482 -306.65064803 168.12695273 -289.51227593 133.14538372 C-288.97715386 132.04637737 -288.97715386 132.04637737 -288.43122125 130.92516887 C-261.773055 76.81616447 -214.15578555 38.51869436 -157.51227593 19.14538372 C-106.20544963 2.23410101 -53.52251013 -0.01376642 0 0 Z M-91.63727593 22.95788372 C-92.7921148 23.12965129 -93.94695367 23.30141887 -95.13678765 23.47839153 C-156.59211294 32.89418619 -214.36664273 57.38618721 -252.51227593 108.14538372 C-252.93508843 108.6967802 -253.35790093 109.24817668 -253.79352593 109.81628215 C-296.26424742 165.32684234 -302.67267235 239.18059962 -302.65753961 306.61364543 C-302.66053914 309.3120517 -302.66391648 312.01045525 -302.66771722 314.70886028 C-302.67594637 321.23024387 -302.67876859 327.75161842 -302.6793296 334.27300678 C-302.67980887 339.59206092 -302.68188383 344.91111215 -302.68503022 350.23016536 C-302.69381893 365.40304284 -302.69845289 380.57591331 -302.69769975 395.74879335 C-302.69765979 396.56303243 -302.69761984 397.37727151 -302.69757867 398.2161845 C-302.69753779 399.03145099 -302.69749691 399.84671749 -302.69745479 400.68668903 C-302.69704975 413.85073326 -302.70658795 427.01474868 -302.72071704 440.17878459 C-302.7352032 453.78611908 -302.74198045 467.39343965 -302.74112326 481.00078201 C-302.74079526 488.60350837 -302.74342142 496.2062043 -302.75430131 503.8089236 C-304.63757228 630.71122038 -304.63757228 630.71122038 -254.51227593 744.14538372 C-254.04176812 744.73400188 -253.57126031 745.32262004 -253.08649468 745.92907512 C-217.12155703 790.37519036 -161.98424298 805.69509798 -107.13727593 811.62975872 C-84.90067057 813.94463456 -62.68352074 815.13982698 -40.32868218 815.32116497 C-38.99290633 815.33317802 -37.65713159 815.3453144 -36.32135797 815.35757244 C-28.12310064 815.43111311 -28.12310064 815.43111311 -19.92462945 815.47131145 C9.84939981 815.56826224 9.84939981 815.56826224 21.48772407 820.14538372 C22.29330756 820.45306682 23.09889106 820.76074993 23.92888618 821.07775676 C25.92630281 821.91136387 27.82455751 822.82265299 29.73772407 823.83288372 C30.73618354 824.35422893 30.73618354 824.35422893 31.75481391 824.88610637 C45.29475246 832.1939457 53.52814576 842.98333676 62.48772407 855.14538372 C63.3445478 856.30336467 63.3445478 856.30336467 64.2186811 857.48473918 C66.51786093 860.59384991 68.81251693 863.70614316 71.09636664 866.82653606 C75.48806536 872.82236629 79.9696492 878.7443464 84.48772407 884.64538372 C89.55435719 891.26477303 94.56180521 897.92061104 99.48772407 904.64538372 C104.54829318 911.54926914 109.67732405 918.39720907 114.86272407 925.20788372 C115.50467719 926.05221965 116.14663032 926.89655559 116.80803657 927.76647747 C135.95802806 952.98346971 135.95802806 952.98346971 164.48772407 965.14538372 C178.51202765 966.6822937 191.26739341 962.47044032 202.35100532 953.94225872 C211.40882852 946.12013855 218.39720738 936.7289042 225.48772407 927.14538372 C226.05748969 926.3762968 226.62725532 925.60720989 227.21428657 924.81481731 C229.51528901 921.70281657 231.81084632 918.58695603 234.09661078 915.46374309 C238.48838733 909.46819366 242.96975788 903.54627907 247.48772407 897.64538372 C252.55435719 891.0259944 257.56180521 884.37015639 262.48772407 877.64538372 C267.54829318 870.7414983 272.67732405 863.89355836 277.86272407 857.08288372 C278.82565375 855.81637981 278.82565375 855.81637981 279.80803657 854.52428997 C294.15120458 835.73592525 307.06987722 821.81049069 330.97380805 816.60387981 C336.02092635 815.94533134 341.03536253 815.94784221 346.12053657 815.89928997 C348.46380334 815.8680096 350.80706492 815.83633805 353.15032172 815.80431926 C354.97989417 815.78128231 354.97989417 815.78128231 356.84642768 815.75777996 C433.97443798 814.735981 514.75978169 805.19771656 573.05559516 749.51012981 C574.43471459 748.19589905 575.83007619 746.8987771 577.22600532 745.60241497 C624.72643343 700.16423409 641.43696968 628.17668443 643.60520935 564.70626175 C643.77412078 556.57533548 643.77445536 548.44394931 643.76383245 540.31157446 C643.76131904 536.68964334 643.77043549 533.06773586 643.77786994 529.44581401 C643.79049522 522.38341356 643.79242591 515.32105133 643.79006968 508.25864149 C643.78827193 502.50386842 643.79006698 496.74910677 643.79429412 490.99433506 C643.79488931 490.16895557 643.7954845 489.34357609 643.79609772 488.49318511 C643.79730974 486.81527706 643.79852387 485.13736901 643.7997401 483.45946097 C643.81056957 467.78955165 643.80847552 452.11966396 643.80235525 436.44975346 C643.79719475 422.19545514 643.80842689 407.94122534 643.82745347 393.68694056 C643.84694937 378.96534344 643.85506718 364.24377853 643.85133022 349.52216846 C643.84943527 341.29144868 643.85173583 333.06078707 643.86604476 324.83007801 C643.87811104 317.81979974 643.87919696 310.80961541 643.86725459 303.79933549 C643.86146935 300.24067624 643.85996746 296.68218742 643.87225699 293.12354076 C643.9132949 278.22387774 643.4673212 263.47758414 642.10898566 248.64378154 C642.04776636 247.97051661 641.98654705 247.29725168 641.92347262 246.60358477 C637.12641248 194.96321912 622.66119093 141.35252205 588.48772407 101.14538372 C587.7748725 100.3036259 587.06202094 99.46186809 586.32756782 98.59460247 C584.10263861 96.05360855 581.81464758 93.59346405 579.48772407 91.14538372 C578.96226996 90.58738079 578.43681586 90.02937786 577.89543891 89.45446575 C565.30272581 76.16196112 551.49939171 65.10801231 535.48772407 56.14538372 C534.69043891 55.6969511 533.89315375 55.24851848 533.07170844 54.786497 C484.93880548 28.00970047 429.54907904 18.95813115 374.96494269 19.01167095 C373.13499024 19.00979876 371.30503818 19.00749644 369.47508675 19.00480562 C364.48546801 18.99873138 359.49586613 18.99881602 354.50624454 19 C349.10922984 19.00020513 343.71222041 18.99467453 338.3152082 18.98994243 C327.75470254 18.98165879 317.19420247 18.9788886 306.63369384 18.97833005 C298.04111974 18.9778537 289.44854748 18.97579299 280.85597396 18.97262943 C256.45110235 18.9638282 232.04623512 18.95920909 207.64136191 18.9599599 C205.67051015 18.96001984 205.67051015 18.96001984 203.65984321 18.96008098 C202.34432223 18.96012186 201.02880125 18.96016274 199.673416 18.96020486 C178.37502152 18.96061092 157.07664797 18.95105002 135.77825757 18.93694261 C113.86671544 18.92254459 91.95518193 18.91567435 70.04363495 18.91653639 C57.75921978 18.91686723 45.47482317 18.91416992 33.19041228 18.90335834 C22.72710157 18.89420802 12.26381783 18.89211493 1.80050483 18.89886776 C-3.52726535 18.90211057 -8.85498392 18.90227177 -14.18274903 18.89351451 C-40.14504357 18.8534919 -65.90059169 19.06439571 -91.63727593 22.95788372 Z " fill="#191512" transform="translate(329.51227593421936,7.854616284370422)"/>
<path d="M0 0 C2.76539215 2.58158965 5.43186711 5.22238195 8 8 C6.67152382 11.71981553 5.0374074 14.54340564 2.62109375 17.66015625 C1.95102295 18.5313208 1.28095215 19.40248535 0.59057617 20.30004883 C-0.47519653 21.66746216 -0.47519653 21.66746216 -1.5625 23.0625 C-3.01624823 24.9422265 -4.46937664 26.82243253 -5.921875 28.703125 C-6.62376953 29.60998047 -7.32566406 30.51683594 -8.04882812 31.45117188 C-9.71591019 33.6288917 -11.34793182 35.82341911 -12.953125 38.046875 C-13.36232178 38.61140381 -13.77151855 39.17593262 -14.19311523 39.75756836 C-15.23515683 41.205063 -16.26833284 42.65892857 -17.30078125 44.11328125 C-17.86152344 44.73589844 -18.42226563 45.35851562 -19 46 C-22.95186339 46 -23.535239 44.79308435 -26.3125 42.0625 C-44.38703748 25.35406128 -65.94070743 17.74011618 -90.3125 17.5 C-91.48047119 17.48146973 -92.64844238 17.46293945 -93.85180664 17.44384766 C-102.95444671 17.50957069 -111.15896986 19.13490053 -119.0625 23.8125 C-122.52550111 27.72233996 -124.1402539 31.88050963 -124.4375 37.0625 C-123.86476886 42.21708029 -122.40336246 45.01838143 -118.375 48.33984375 C-105.61087905 57.08858498 -87.98593863 58.83773525 -73.20654297 62.06738281 C-27.89295144 72.00586869 -27.89295144 72.00586869 -11 87 C-10.31421875 87.56976563 -9.6284375 88.13953125 -8.921875 88.7265625 C0.08527416 96.805494 5.22777737 108.6543708 6.21728516 120.62963867 C7.07131529 140.44630089 4.52960409 159.09782151 -9.3125 174.3125 C-28.79261626 194.79193152 -55.08988889 202.35222343 -82.72265625 203.28515625 C-121.41541121 204.03109204 -162.21234118 195.38110921 -191.65234375 168.5859375 C-193.48539517 166.76255067 -195.27128384 164.92198877 -197 163 C-195.55434954 158.74077176 -193.42702078 155.75025897 -190.625 152.25 C-185.8949641 146.26038285 -181.47023392 140.08927779 -177.11181641 133.82519531 C-174.52139745 130.11211586 -171.88215077 126.49682748 -169 123 C-165.14182051 124.5718509 -162.889743 127.04458102 -160 130 C-142.48921557 147.86723806 -114.52465952 155.67782127 -90.1875 156.1875 C-80.28051663 156.07289479 -68.08067808 155.56908257 -60.375 148.51171875 C-56.43367387 143.99934821 -55.63803808 140.12989808 -55.72265625 134.34765625 C-56.19462399 130.35254905 -57.58446885 128.24189707 -60 125 C-64.26653601 121.73678182 -68.47214252 119.93945849 -73.6015625 118.52734375 C-74.33541168 118.31867172 -75.06926086 118.10999969 -75.8253479 117.89500427 C-85.76742267 115.1382984 -95.88468454 113.11118091 -105.98339844 111.02319336 C-162.67293469 99.24389479 -162.67293469 99.24389479 -178 77 C-187.16954714 61.92022342 -189.50540246 44.82369335 -185.375 27.75 C-182.45810012 16.78638814 -177.44523353 7.52065616 -170 -1 C-169.50242187 -1.59167969 -169.00484375 -2.18335938 -168.4921875 -2.79296875 C-128.04092116 -47.20805265 -41.56031189 -35.51110207 0 0 Z " fill="#161310" transform="translate(625,343)"/>
<path d="M0 0 C67.65 0 135.3 0 205 0 C205 14.85 205 29.7 205 45 C169.36 45.495 169.36 45.495 133 46 C132.67 105.07 132.34 164.14 132 225 C112.86 225 93.72 225 74 225 C73.67 165.93 73.34 106.86 73 46 C48.91 45.67 24.82 45.34 0 45 C0 30.15 0 15.3 0 0 Z " fill="#F097BF" transform="translate(219,317)"/>
<path d="M0 0 C4.22834588 3.00155307 7.59564255 6.44627705 10.9140625 10.41015625 C13.33081378 13.2606834 15.85842219 16.00238758 18.39453125 18.74609375 C21.43410121 22.04573113 24.45610915 25.35560671 27.39453125 28.74609375 C30.75775763 32.62426388 34.22788796 36.40137186 37.70263672 40.17919922 C42.13676753 45.00194266 46.51971365 49.86950495 50.89453125 54.74609375 C52.39424253 56.41302022 53.89424446 58.07968524 55.39453125 59.74609375 C58.39453125 63.07942708 61.39453125 66.41276042 64.39453125 69.74609375 C65.13960937 70.57367188 65.8846875 71.40125 66.65234375 72.25390625 C68.12745743 73.89349254 69.60144777 75.5340903 71.07421875 77.17578125 C75.19550893 81.76639985 79.34326913 86.33056482 83.51953125 90.87109375 C87.07727725 94.74000578 90.5869198 98.64157993 94.01171875 102.62890625 C95.5007003 104.3032382 97.03728854 105.9352238 98.58984375 107.55078125 C106.05820263 115.32473792 111.98212508 122.03920889 112.51953125 133.24609375 C111.85104364 146.00677944 104.19101116 153.10433184 95.68359375 161.81640625 C92.50705297 165.07103869 89.49486334 168.43653198 86.52001953 171.87548828 C84.23553027 174.50446946 81.88105901 177.06099909 79.51953125 179.62109375 C74.60533777 184.96128542 69.74072358 190.34406574 64.89453125 195.74609375 C63.39481997 197.41302022 61.89481804 199.07968524 60.39453125 200.74609375 C59.65203125 201.57109375 58.90953125 202.39609375 58.14453125 203.24609375 C42.39453125 220.74609375 42.39453125 220.74609375 40.13671875 223.25390625 C38.66160507 224.89349254 37.18761473 226.5340903 35.71484375 228.17578125 C31.59355273 232.76640078 27.44573184 237.33050756 23.26953125 241.87109375 C20.23348993 245.17349099 17.21596633 248.48814977 14.26953125 251.87109375 C13.72941406 252.48726562 13.18929687 253.1034375 12.6328125 253.73828125 C11.32309098 255.25108319 10.03191771 256.779973 8.75 258.31640625 C3.20985189 264.79092346 -2.33769634 269.98859996 -11.234375 270.984375 C-19.60311403 271.23960139 -26.66738356 269.31498508 -32.98046875 263.62109375 C-38.4290414 257.58000492 -40.87712851 250.28329004 -40.484375 242.1875 C-39.21616466 234.01604165 -34.63087919 228.57786358 -29.10546875 222.74609375 C-27.68582369 221.16543035 -26.26932377 219.58193828 -24.85546875 217.99609375 C-20.94774358 213.66158631 -17.00190613 209.36313536 -13.05175781 205.06738281 C-9.9739838 201.7131491 -6.96164627 198.31091396 -3.98046875 194.87109375 C-1.08695866 191.59178232 1.88541484 188.38502663 4.84765625 185.16796875 C7.40008268 182.39115318 9.92436413 179.59628658 12.39453125 176.74609375 C15.75775763 172.86792362 19.22788796 169.09081564 22.70263672 165.31298828 C26.39726194 161.29456161 30.06074014 157.24951174 33.703125 153.18359375 C35.20807644 151.50963707 36.72158838 149.8433492 38.2421875 148.18359375 C39.01433594 147.33796875 39.78648437 146.49234375 40.58203125 145.62109375 C41.26652344 144.87601563 41.95101562 144.1309375 42.65625 143.36328125 C45.57574748 139.94955819 48.23430393 136.36355534 50.89453125 132.74609375 C50.47679443 132.30330078 50.05905762 131.86050781 49.62866211 131.40429688 C47.69497974 129.35294458 45.76349976 127.29953058 43.83203125 125.24609375 C43.17525391 124.55 42.51847656 123.85390625 41.84179688 123.13671875 C37.9786161 119.02614216 34.20711116 114.8542928 30.5090332 110.59472656 C28.22346952 107.9777164 25.8754186 105.42507373 23.51953125 102.87109375 C18.60533777 97.53090208 13.74072358 92.14812176 8.89453125 86.74609375 C7.39481997 85.07916728 5.89481804 83.41250226 4.39453125 81.74609375 C1.39453125 78.41276042 -1.60546875 75.07942708 -4.60546875 71.74609375 C-5.72308594 70.50472656 -5.72308594 70.50472656 -6.86328125 69.23828125 C-8.33839493 67.59869496 -9.81238527 65.9580972 -11.28515625 64.31640625 C-14.44887679 60.79240437 -17.61202345 57.26990713 -20.8359375 53.80078125 C-40.90908799 32.18727839 -40.90908799 32.18727839 -40.453125 19.26171875 C-39.45285699 12.02382439 -35.56450019 5.54455746 -30.10546875 0.74609375 C-20.38280818 -5.42910958 -10.03581744 -5.97680408 0 0 Z " fill="#70C7F1" transform="translate(837.10546875,290.25390625)"/>
<path d="M0 0 C5.83388617 4.74952071 9.24307887 10.15473049 10.7890625 17.5234375 C11.46256331 27.45757444 8.99877435 33.58128829 2.4765625 41.1484375 C0.28021598 43.63774364 -1.95657978 46.08663176 -4.2109375 48.5234375 C-4.81035156 49.17248047 -5.40976563 49.82152344 -6.02734375 50.49023438 C-9.03642677 53.73889406 -12.06155149 56.9719087 -15.09765625 60.1953125 C-17.93357271 63.21292187 -20.67447113 66.29830654 -23.375 69.4375 C-25.93585685 72.34706927 -28.57507294 75.18187828 -31.2109375 78.0234375 C-34.9973209 82.10638328 -38.72861052 86.2211376 -42.37109375 90.43359375 C-45.25078655 93.70458239 -48.21448003 96.89846841 -51.16650391 100.10400391 C-54.25736586 103.46631034 -57.27948902 106.87705749 -60.265625 110.33203125 C-62.36227977 112.69392548 -64.51240934 114.99930339 -66.66918945 117.30615234 C-71.5281298 122.50745905 -76.09731849 127.69581057 -80.2109375 133.5234375 C-79.42589844 134.3690625 -78.64085937 135.2146875 -77.83203125 136.0859375 C-68.28372306 146.3893415 -68.28372306 146.3893415 -64.7109375 150.5234375 C-61.62196443 154.09695536 -58.42251537 157.56054864 -55.2109375 161.0234375 C-51.42459844 165.10642623 -47.69326617 169.22113564 -44.05078125 173.43359375 C-41.64423594 176.16714309 -39.17790554 178.84457756 -36.7109375 181.5234375 C-33.67203573 184.82370626 -30.6493765 188.13293097 -27.7109375 191.5234375 C-24.34771112 195.40160763 -20.87758079 199.17871561 -17.40283203 202.95654297 C-13.7106944 206.97226404 -10.04933601 211.01426538 -6.41015625 215.078125 C-4.88030723 216.77916494 -3.34046781 218.47125103 -1.79296875 220.15625 C5.75591462 228.40706869 11.43898439 235.34304623 11.09765625 247.12890625 C10.18118869 254.24023049 7.1526389 260.25202424 1.83203125 265.05078125 C-4.77758979 269.81526907 -12.14478231 271.77530479 -20.2109375 270.5234375 C-31.53864518 267.33810872 -38.74791492 258.03255898 -46.2109375 249.5234375 C-47.7084982 247.85457869 -49.20848496 246.18789361 -50.7109375 244.5234375 C-53.7109375 241.19010417 -56.7109375 237.85677083 -59.7109375 234.5234375 C-60.45601563 233.69585938 -61.20109375 232.86828125 -61.96875 232.015625 C-63.44386368 230.37603871 -64.91785402 228.73544095 -66.390625 227.09375 C-70.51191518 222.5031314 -74.65967538 217.93896643 -78.8359375 213.3984375 C-82.39346849 209.52975928 -85.89383325 205.62009625 -89.3359375 201.6484375 C-91.75643825 198.90520332 -94.23294392 196.21459182 -96.7109375 193.5234375 C-99.74981768 190.22314827 -102.77249795 186.91394467 -105.7109375 183.5234375 C-108.61179817 180.17842592 -111.58938958 176.90758007 -114.5859375 173.6484375 C-141.99085159 143.81116222 -141.99085159 143.81116222 -141.62109375 129.80859375 C-140.64311409 121.97544234 -136.68924836 116.4623366 -131.015625 111.21484375 C-129.19594767 109.50938859 -127.58472128 107.72776214 -125.9609375 105.8359375 C-122.98126641 102.38192416 -119.92496334 99.00452762 -116.8359375 95.6484375 C-111.92277984 90.307284 -107.05714295 84.92548014 -102.2109375 79.5234375 C-100.71122622 77.85651103 -99.21122429 76.18984601 -97.7109375 74.5234375 C-96.9684375 73.6984375 -96.2259375 72.8734375 -95.4609375 72.0234375 C-88.7109375 64.5234375 -88.7109375 64.5234375 -86.453125 62.015625 C-84.97801132 60.37603871 -83.50402098 58.73544095 -82.03125 57.09375 C-77.90995982 52.5031314 -73.76219962 47.93896643 -69.5859375 43.3984375 C-66.02840651 39.52975928 -62.52804175 35.62009625 -59.0859375 31.6484375 C-56.66543542 28.90520181 -54.18886035 26.21465835 -51.7109375 23.5234375 C-48.59349225 20.13619307 -45.4905905 16.73979724 -42.4609375 13.2734375 C-41.91695313 12.65339844 -41.37296875 12.03335937 -40.8125 11.39453125 C-39.69977099 10.09453809 -38.61278851 8.772241 -37.546875 7.43359375 C-28.09161562 -4.1588133 -13.1993605 -8.81512062 0 0 Z " fill="#70C7F1" transform="translate(200.2109375,290.4765625)"/>
<path d="M0 0 C6.75927319 4.74415767 10.63915529 10.53226819 12.29296875 18.609375 C13.75560935 29.47470514 7.2161574 41.87710052 3.57421875 51.9453125 C3.11908389 53.21014423 2.66419602 54.47506486 2.20953369 55.74006653 C0.99374949 59.12019411 -0.22585296 62.49893179 -1.44630432 65.87737656 C-2.47501548 68.72661553 -3.50139163 71.57669341 -4.52780533 74.42676067 C-11.7060334 94.35737835 -18.93441837 114.26964571 -26.18737793 134.17318726 C-31.92353495 149.9148752 -37.61358169 165.67230736 -43.25811768 181.44708252 C-44.44238062 184.75594081 -45.62792209 188.06433789 -46.81396484 191.37255859 C-47.39085556 192.98174667 -47.39085556 192.98174667 -47.97940063 194.6234436 C-48.74806221 196.76747896 -49.51675905 198.91150168 -50.28549194 201.05551147 C-52.1978954 206.39115847 -54.10668724 211.728054 -56.00878906 217.06738281 C-57.84601785 222.22414329 -59.69211854 227.37764529 -61.54455566 232.52896118 C-62.22657766 234.43072242 -62.90530661 236.33366844 -63.58044434 238.23788452 C-64.50719263 240.85059641 -65.44555697 243.45885804 -66.38671875 246.06640625 C-66.65050323 246.81910797 -66.91428772 247.57180969 -67.18606567 248.34732056 C-70.61686678 257.75615174 -75.07493881 264.2760958 -83.76953125 269.421875 C-89.98944268 271.80250482 -97.25774461 271.67251129 -103.55859375 269.73046875 C-110.6201092 266.49838539 -115.46061418 261.93154258 -118.58203125 254.796875 C-121.1872267 246.43116806 -119.60265847 238.82310654 -116.6796875 230.796875 C-116.20548119 229.43792114 -116.20548119 229.43792114 -115.72169495 228.05151367 C-114.7327007 225.23153432 -113.72177585 222.42017744 -112.70703125 219.609375 C-112.10075203 217.90387595 -111.49510271 216.19815282 -110.89013672 214.4921875 C-109.33607853 210.13115023 -107.75835557 205.77904648 -106.17260742 201.42944336 C-104.71492727 197.43094812 -103.26359331 193.43015614 -101.81167603 189.42956543 C-101.0242006 187.25993961 -100.23641462 185.09042648 -99.44833374 182.92102051 C-94.98403463 170.62901802 -90.55090897 158.32579408 -86.11737061 146.02267456 C-83.76691138 139.50037366 -81.41465943 132.97871915 -79.0625 126.45703125 C-78.83293358 125.82051699 -78.60336716 125.18400272 -78.36684418 124.52820015 C-65.98945101 90.20999305 -65.98945101 90.20999305 -59.93978882 73.53730774 C-57.58809362 67.05220158 -55.25084495 60.56200365 -52.91862488 54.06987 C-51.19198875 49.26920458 -49.45750663 44.47139637 -47.7215271 39.67410278 C-46.88768522 37.3646415 -46.05706424 35.0540144 -45.22988892 32.74215698 C-44.07983075 29.52935162 -42.91818312 26.32095649 -41.75390625 23.11328125 C-41.41814072 22.1665152 -41.08237518 21.21974915 -40.73643494 20.24429321 C-37.46584064 11.30399828 -33.62274994 3.38712442 -24.93359375 -1.359375 C-16.49777192 -5.07802299 -7.96681178 -4.50903815 0 0 Z " fill="#F098C0" transform="translate(764.70703125,298.390625)"/>
<path d="M0 0 C0 0.33 0 0.66 0 1 C-3.3 1.33 -6.6 1.66 -10 2 C-10.33 3.32 -10.66 4.64 -11 6 C-11.99 5.01 -12.98 4.02 -14 3 C-9.25294723 -0.16470185 -5.68228705 -0.10927475 0 0 Z " fill="#8CD2F4" transform="translate(826,286)"/>
<path d="M0 0 C1.7074998 1.28062485 3.37373596 2.61767557 5 4 C5 4.66 5 5.32 5 6 C3.68 6 2.36 6 1 6 C0.67 4.02 0.34 2.04 0 0 Z " fill="#7CCCF2" transform="translate(155,464)"/>
<path d="M0 0 C0.66 0.33 1.32 0.66 2 1 C0.8125 3.5 0.8125 3.5 -1 6 C-3.6875 6.3125 -3.6875 6.3125 -6 6 C-4 4 -2 2 0 0 Z " fill="#7DCDF2" transform="translate(171,290)"/>
<path d="M0 0 C0.66 0 1.32 0 2 0 C0.75023244 3.65316671 0.32901247 4.78065836 -3 7 C-3 5.35 -3 3.7 -3 2 C-2.01 2 -1.02 2 0 2 C0 1.34 0 0.68 0 0 Z " fill="#7DCCF2" transform="translate(944,435)"/>
</svg>
