<?xml version="1.0" encoding="UTF-8"?>
<svg version="1.1" xmlns="http://www.w3.org/2000/svg" width="1000" height="1000">
<path d="M0 0 C5.02690134 0.00020664 10.05379719 -0.00533949 15.08069587 -0.01005757 C24.89936145 -0.01830887 34.71802102 -0.0211099 44.53668979 -0.02166995 C52.53209003 -0.0221478 60.52748832 -0.02421589 68.52288795 -0.02737057 C91.27447886 -0.03616254 114.02606509 -0.0407923 136.77765772 -0.0400401 C138.61148187 -0.03998016 138.61148187 -0.03998016 140.48235297 -0.03991902 C142.31845969 -0.0398577 142.31845969 -0.0398577 144.19165948 -0.03979514 C164.00189143 -0.03938922 183.81210432 -0.04894903 203.62233075 -0.06305739 C224.04484985 -0.07748508 244.46735969 -0.08432406 264.889884 -0.08346361 C276.32270036 -0.08313381 287.75549675 -0.08578459 299.18830848 -0.09664166 C308.92647921 -0.10583138 318.66462092 -0.10785354 328.40279415 -0.10113224 C333.3531425 -0.09790896 338.30343545 -0.09765439 343.25377822 -0.10648549 C361.90010453 -0.13757569 380.49437337 0.01068105 399.11571479 1.05119121 C399.83900197 1.09112329 400.56228916 1.13105536 401.30749413 1.1721975 C463.52642169 4.70479199 529.87252224 20.6081555 577.48772407 63.14538372 C577.98643012 63.58527629 578.48513618 64.02516887 578.99895453 64.47839153 C637.00439236 115.81593098 657.32632644 190.85278937 661.94708149 265.79507293 C662.71929146 278.84427625 662.76900498 291.88265618 662.74651313 304.9517802 C662.74813767 307.67287316 662.75273103 310.39395955 662.75713325 313.11504924 C662.76589435 319.65144274 662.76416578 326.18778958 662.75830796 332.72418468 C662.7537376 338.05069008 662.75320136 343.37718265 662.7553556 348.70368946 C662.75566206 349.47012664 662.75596853 350.23656383 662.75628428 351.02622639 C662.75692392 352.58463244 662.75757235 354.14303848 662.75822946 355.70144451 C662.76389394 370.21775336 662.75743671 384.7340367 662.74662873 399.25034136 C662.7376986 411.6262569 662.73924845 424.00213487 662.74846625 436.37804973 C662.75924141 450.85106336 662.76334311 465.32405479 662.75724173 479.79707187 C662.75660482 481.34913532 662.75597608 482.90119876 662.7553556 484.45326221 C662.75504705 485.21632979 662.75473849 485.97939737 662.75442059 486.76558821 C662.75271508 492.06689465 662.75560154 497.36818648 662.7603147 502.66949069 C662.81496393 570.22507652 661.40313339 637.93630209 631.48772407 700.14538372 C631.11679633 700.91769329 630.7458686 701.69000286 630.36370063 702.48571575 C604.22327398 756.02309448 557.21022057 794.86763698 501.22209907 814.30651653 C486.55161406 819.28696875 471.68177707 823.1506349 456.48772407 826.14538372 C455.51770453 826.33825969 454.547685 826.53113567 453.54827094 826.72985637 C446.556025 828.08552001 439.54469986 829.18572146 432.48772407 830.14538372 C431.43294868 830.29104778 430.37817328 830.43671184 429.291435 830.58678997 C406.75947802 833.53700787 384.11625267 833.59106757 361.43010688 833.67931926 C360.15638221 833.68944545 358.88265754 833.69957164 357.57033515 833.71000469 C355.18174813 833.72873128 352.79303181 833.73618945 350.40438056 833.72956645 C334.83670584 833.8748499 319.5651853 837.41223064 307.96038032 848.36413372 C302.52348262 854.47956998 297.87997253 861.24059559 293.12004828 867.88610637 C291.00682508 870.81098934 288.82348479 873.66839054 286.61272407 876.52038372 C285.82639594 877.53616497 285.04006782 878.55194622 284.22991157 879.59850872 C283.80419868 880.14829387 283.37848578 880.69807903 282.9398725 881.26452434 C274.08702243 892.73095961 265.34980076 904.27868354 256.78874946 915.96447551 C251.64580253 922.9685542 246.39295963 929.88608491 241.10588813 936.78185833 C236.94561483 942.20682972 236.94561483 942.20682972 232.89788032 947.71569622 C219.99805357 965.58417233 203.75195126 979.21873062 181.48772407 983.14538372 C160.66499527 984.70381031 143.55194676 981.04736825 126.80022407 967.89538372 C116.70190746 959.19395241 109.04111013 949.03386385 101.26116157 938.30944622 C97.41992884 933.02347535 93.46353422 927.83051477 89.48772407 922.64538372 C84.4205787 916.02640231 79.41345195 909.37027483 74.48772407 902.64538372 C68.85618864 894.95861984 63.11645919 887.3602537 57.32341743 879.79455364 C53.69605041 875.05515355 50.10375597 870.29404228 46.55803657 865.49328411 C35.29138844 850.28440369 23.89684129 837.90161785 4.21076179 834.59495342 C0.68417723 834.16910612 -2.70669027 834.00148457 -6.2566607 833.97179973 C-7.56075387 833.95830989 -8.86484704 833.94482006 -10.20845819 833.93092144 C-11.24334721 833.92333151 -11.24334721 833.92333151 -12.29914308 833.91558826 C-14.5049435 833.89890219 -16.71059178 833.87564057 -18.91631341 833.85069072 C-25.18625715 833.78079962 -31.45627513 833.72113792 -37.72638726 833.66857708 C-63.8195833 833.44405094 -89.85496317 832.75245695 -115.76227593 829.33288372 C-116.41140954 829.24890331 -117.06054315 829.1649229 -117.72934747 829.07839763 C-160.79775243 823.47908399 -204.75090688 812.50008198 -239.51227593 785.14538372 C-240.9141314 784.07417278 -240.9141314 784.07417278 -242.34430718 782.98132122 C-259.64363939 769.36954337 -272.41347559 753.00166136 -283.51227593 734.14538372 C-284.04183892 733.2532719 -284.04183892 733.2532719 -284.58210015 732.34313762 C-308.77935021 691.04912305 -316.21884196 640.12119803 -319.51227593 593.14538372 C-319.59530843 592.01471981 -319.67834092 590.8840559 -319.76388955 589.71912944 C-320.71708606 575.60457906 -320.66924028 561.48674525 -320.6723187 547.34628332 C-320.67419555 543.62402769 -320.68175553 539.90178237 -320.68845391 536.17953289 C-320.70193362 528.06700584 -320.70804595 519.95448381 -320.71246457 511.84194744 C-320.71524529 506.75632425 -320.71948583 501.67070291 -320.72396874 496.58508098 C-320.73614904 482.44728517 -320.74645002 468.30949081 -320.74984384 454.17168987 C-320.7500634 453.26991567 -320.75028297 452.36814147 -320.75050919 451.43904078 C-320.75072747 450.53535832 -320.75094574 449.63167586 -320.75117064 448.70060909 C-320.75161407 446.87002615 -320.75206063 445.03944321 -320.75251031 443.20886028 C-320.75273174 442.30086728 -320.75295317 441.39287428 -320.75318131 440.45736635 C-320.75711956 425.78304222 -320.77454939 411.10876803 -320.79786983 396.43446314 C-320.82173296 381.29382102 -320.83405246 366.1532038 -320.83521175 351.01254261 C-320.8361203 342.54192298 -320.84166173 334.07136843 -320.86003137 325.60076702 C-320.87563624 318.38067343 -320.88043562 311.16066502 -320.87229326 303.94055772 C-320.86845691 300.27447391 -320.86895875 296.60856047 -320.88335061 292.94249904 C-320.93996785 277.59588262 -320.49383424 262.40396186 -319.13452935 247.11999309 C-319.04266083 246.08017709 -319.04266083 246.08017709 -318.94893637 245.0193547 C-315.45772797 206.34401482 -306.65064803 168.12695273 -289.51227593 133.14538372 C-288.97715386 132.04637737 -288.97715386 132.04637737 -288.43122125 130.92516887 C-261.773055 76.81616447 -214.15578555 38.51869436 -157.51227593 19.14538372 C-106.20544963 2.23410101 -53.52251013 -0.01376642 0 0 Z M-77.51227593 21.14538372 C-78.27396903 21.22498722 -79.03566213 21.30459072 -79.82043684 21.38660645 C-83.87550599 21.81779743 -87.91268974 22.31966438 -91.94977593 22.89538372 C-93.14675103 23.06602336 -94.34372613 23.23666301 -95.5769732 23.41247356 C-155.29414767 32.30159642 -214.60394594 57.12227374 -251.81769586 106.54406536 C-261.13081459 119.26271686 -268.85771276 132.8731468 -275.51227593 147.14538372 C-276.02145562 148.22303997 -276.53063531 149.30069622 -277.05524468 150.41100872 C-298.97462145 199.06849923 -302.66924048 253.07278512 -302.65753961 305.68371379 C-302.66000113 308.40167677 -302.66391573 311.11963729 -302.66771722 313.83759868 C-302.67595218 320.41058842 -302.67876887 326.98356918 -302.6793296 333.55656365 C-302.67980864 338.91759442 -302.6818825 344.27862229 -302.68503022 349.63965213 C-302.69382094 364.92911281 -302.69845263 380.21856652 -302.69769975 395.50802974 C-302.69765979 396.32880821 -302.69761984 397.14958668 -302.69757867 397.99523723 C-302.69753779 398.81705046 -302.69749691 399.63886369 -302.69745479 400.48558035 C-302.69704982 413.75315247 -302.7065858 427.02069602 -302.72071704 440.2882599 C-302.73520222 453.99952386 -302.74198048 467.710774 -302.74112326 481.42204577 C-302.7407952 489.08403173 -302.74342278 496.74598752 -302.75430131 504.40796649 C-303.42232434 612.55777797 -303.42232434 612.55777797 -272.51227593 715.14538372 C-272.20209527 715.79168743 -271.89191461 716.43799114 -271.57233453 717.10387981 C-252.92665711 755.41083739 -219.9320014 782.03713304 -180.17633843 796.23913372 C-135.38562834 811.59059966 -87.25881634 814.94144161 -40.23102593 815.32116497 C-38.89604854 815.33316328 -37.56107234 815.34529454 -36.22609735 815.35755718 C-28.04800472 815.4310979 -28.04800472 815.4310979 -19.86969781 815.47131145 C9.86859629 815.56830564 9.86859629 815.56830564 21.48772407 820.14538372 C22.29870551 820.4583842 23.10968696 820.77138469 23.9452436 821.09387004 C25.95719999 821.94399567 27.87192273 822.87140353 29.80022407 823.89538372 C30.46771674 824.24480022 31.13520942 824.59421672 31.82292914 824.95422161 C43.7172328 831.35862509 50.80425884 839.95375242 58.66789985 850.68151653 C61.9062547 855.06593794 65.23632866 859.38046962 68.55022407 863.70788372 C73.70403375 870.46608934 78.82705026 877.24610781 83.91423774 884.0545634 C88.02673657 889.5507647 92.19348485 895.00465763 96.36272407 900.45788372 C101.5960509 907.30597306 106.76553662 914.19537459 111.86272407 921.14538372 C117.30414142 928.55974385 122.78101281 935.93201813 128.48772407 943.14538372 C129.38684516 944.295872 129.38684516 944.295872 130.30413032 945.46960247 C138.57258884 955.54139069 151.40073826 963.61324879 164.48772407 965.14538372 C178.50159311 966.23686726 191.07430735 962.80703331 202.15178657 954.03600872 C210.16036114 947.01943281 216.7102776 939.06586815 222.92522407 930.45788372 C227.99791765 923.50468875 233.13727297 916.60956765 238.36272407 909.77038372 C239.36106269 908.46315349 239.36106269 908.46315349 240.37956977 907.12951458 C243.09404934 903.57800246 245.81145781 900.02873629 248.52873969 896.47936809 C255.58822324 887.25398355 262.619191 878.01414502 269.48772407 868.64538372 C274.59011729 861.69578753 279.72994068 854.77588414 284.92522407 847.89538372 C285.5755561 847.02591106 286.22588813 846.1564384 286.89592719 845.26061809 C299.07868382 829.19640766 314.31913559 819.20379633 334.48772407 816.14538372 C338.49648183 815.86152302 342.49333943 815.82122514 346.51116157 815.80163372 C348.84140311 815.77328621 351.17164397 815.74488247 353.50188422 815.71642864 C355.30680335 815.69955501 355.30680335 815.69955501 357.14818549 815.6823405 C437.05045986 814.88737465 517.48478187 803.55304294 577.48772407 746.14538372 C579.96400781 743.58655718 582.2304369 740.89828283 584.48772407 738.14538372 C584.90747504 737.64861125 585.32722602 737.15183879 585.75969672 736.64001262 C622.29345862 693.37133114 637.24438773 638.59542986 642.48772407 583.14538372 C642.57685726 582.20649492 642.66599046 581.26760612 642.75782466 580.30026615 C643.79702406 567.2993951 643.63771725 554.27250148 643.63310778 541.23889267 C643.63290164 537.59446852 643.63844272 533.950052 643.64316535 530.30563152 C643.6514277 523.18252635 643.65421821 516.05942946 643.65477773 508.9363199 C643.65525514 503.13645277 643.65732103 497.33658834 643.66047835 491.53672206 C643.66927402 475.04005091 643.67389961 458.54338623 643.67314788 442.04671271 C643.67310792 441.15968918 643.67306797 440.27266565 643.6730268 439.35876262 C643.67298592 438.47063724 643.67294504 437.58251187 643.67290292 436.6674736 C643.67249709 422.2972837 643.68205368 407.92712008 643.69616517 393.55693777 C643.71058925 378.74978783 643.717432 363.94265065 643.71657139 349.13549352 C643.71624142 340.84342601 643.71889952 332.55138603 643.72974944 324.25932491 C643.73893442 317.1951855 643.74096516 310.13108609 643.73424002 303.06694324 C643.73101416 299.47494123 643.73077192 295.88301558 643.73959327 292.29102123 C643.79171664 269.63733266 642.77730729 247.24187231 639.30022407 224.83288372 C639.1961222 224.15313488 639.09202033 223.47338603 638.98476386 222.77303874 C636.75047191 208.32981073 633.48966438 194.20437404 629.48772407 180.14538372 C629.2497309 179.3055595 629.01173774 178.46573528 628.76653266 177.60046184 C623.25519659 158.65649304 615.02657157 139.82824813 604.48772407 123.14538372 C603.55573188 121.65458293 603.55573188 121.65458293 602.60491157 120.13366497 C591.19262586 102.46079338 577.30266277 85.87284823 560.48772407 73.14538372 C559.59182563 72.43382122 558.69592719 71.72225872 557.77288032 70.98913372 C499.22541243 25.37190222 423.69523277 18.60324212 352.18493211 18.76786876 C346.80189807 18.77687713 341.41888435 18.76822054 336.03585029 18.76200664 C325.5449049 18.75261322 315.05402925 18.75903345 304.56308912 18.77126958 C292.30775861 18.78502138 280.05244392 18.78324036 267.79710764 18.78113625 C245.91507565 18.77796049 224.03307642 18.78953465 202.15105414 18.80920208 C180.98437734 18.82822115 159.81773888 18.83528234 138.65105414 18.82970989 C115.5107728 18.82363574 92.37050821 18.82385744 69.23022825 18.83519572 C66.75771121 18.83640283 64.28519418 18.83760881 61.81267715 18.83881366 C60.59663116 18.8394172 59.38058518 18.84002074 58.12768931 18.84064257 C49.61149328 18.84450081 41.09530353 18.84413636 32.57910705 18.84222782 C22.18947077 18.84009366 11.79986782 18.8454221 1.41024088 18.85984137 C-3.87715885 18.86702431 -9.16451034 18.87121527 -14.45191407 18.86659801 C-35.55834601 18.85040447 -56.49650292 18.91985617 -77.51227593 21.14538372 Z " fill="#FEFEFE" transform="translate(329.51227593421936,7.854616284370422)"/>
<path d="M0 0 C2.89129352 2.59924367 5.64457 5.26556027 8.3203125 8.0859375 C6.71819866 13.36042915 3.33413742 17.16806193 -0.0546875 21.3984375 C-1.31631463 22.99513805 -2.5767056 24.59281603 -3.8359375 26.19140625 C-4.47402344 27.00013184 -5.11210938 27.80885742 -5.76953125 28.64208984 C-8.75206882 32.45793865 -11.65786118 36.32982554 -14.5546875 40.2109375 C-15.33078369 41.24988159 -15.33078369 41.24988159 -16.12255859 42.30981445 C-17.30965742 43.90081989 -18.49490428 45.49320694 -19.6796875 47.0859375 C-20.1226416 46.70284424 -20.5655957 46.31975098 -21.02197266 45.92504883 C-41.66602072 28.13885411 -61.75424103 17.95101212 -89.4296875 17.8359375 C-90.65429688 17.8153125 -91.87890625 17.7946875 -93.140625 17.7734375 C-102.60966903 17.73288485 -111.60573258 18.58632099 -119.2734375 24.64453125 C-122.73859546 28.19631816 -123.82795771 32.39519684 -124.0546875 37.2109375 C-123.67424562 41.14217027 -122.91472082 42.91964029 -120.6796875 46.0859375 C-120.6796875 46.7459375 -120.6796875 47.4059375 -120.6796875 48.0859375 C-119.96952484 48.36553818 -119.25936218 48.64513885 -118.52767944 48.93321228 C-116.66881917 49.68558629 -114.82041541 50.46448885 -112.98526001 51.27296448 C-106.00624873 54.32493384 -99.2029951 56.39826565 -91.765625 57.98828125 C-90.12383774 58.35585289 -90.12383774 58.35585289 -88.44888306 58.73085022 C-84.98636488 59.50546668 -81.52101032 60.26604281 -78.0546875 61.0234375 C-27.5324372 72.08699026 -27.5324372 72.08699026 -10.6796875 87.0859375 C-10.05578125 87.62863281 -9.431875 88.17132813 -8.7890625 88.73046875 C1.16887763 97.97403491 5.97222695 110.15672432 6.703125 123.5703125 C7.31760292 143.7727392 3.15645785 160.83445453 -10.6796875 176.0859375 C-28.99246818 195.22677435 -56.0457522 202.66021161 -81.91015625 203.2890625 C-124.09032419 203.76476729 -161.55004134 194.1187264 -193.87890625 166.1640625 C-195.6796875 164.0859375 -195.6796875 164.0859375 -195.6796875 160.0859375 C-194.69262695 158.26513672 -194.69262695 158.26513672 -193.29296875 156.390625 C-192.7726709 155.68284912 -192.25237305 154.97507324 -191.71630859 154.24584961 C-190.86286865 153.11481812 -190.86286865 153.11481812 -189.9921875 151.9609375 C-188.80282824 150.35588147 -187.61404365 148.75039948 -186.42578125 147.14453125 C-185.80944824 146.31679199 -185.19311523 145.48905273 -184.55810547 144.63623047 C-182.68265285 142.0899635 -180.84911085 139.51848704 -179.02734375 136.93359375 C-178.4449292 136.11068848 -177.86251465 135.2877832 -177.26245117 134.43994141 C-176.13925086 132.85060092 -175.02077847 131.25790676 -173.9074707 129.66162109 C-173.39659912 128.94441895 -172.88572754 128.2272168 -172.359375 127.48828125 C-171.91319824 126.85398193 -171.46702148 126.21968262 -171.00732422 125.56616211 C-169.6796875 124.0859375 -169.6796875 124.0859375 -166.6796875 123.0859375 C-166.32559814 123.5281665 -165.97150879 123.97039551 -165.60668945 124.42602539 C-162.05318688 128.7342644 -158.38392183 132.24853185 -153.8671875 135.5234375 C-153.22410645 135.99080322 -152.58102539 136.45816895 -151.91845703 136.93969727 C-129.56100241 152.64794494 -100.6653929 159.28620827 -73.73828125 154.79296875 C-70.06500957 153.9438472 -66.84868648 152.67043699 -63.484375 150.98828125 C-61.6796875 150.0859375 -61.6796875 150.0859375 -58.6796875 149.0859375 C-57.49577527 146.70968405 -57.49577527 146.70968405 -56.6796875 144.0859375 C-56.3496875 143.0959375 -56.0196875 142.1059375 -55.6796875 141.0859375 C-54.90723086 134.55171415 -55.73902209 130.37472528 -59.6796875 125.0859375 C-70.37635426 115.72635408 -89.18189538 114.43529853 -102.60400391 111.59130859 C-151.81167494 101.12176717 -151.81167494 101.12176717 -167.6796875 87.0859375 C-168.49953125 86.46332031 -169.319375 85.84070313 -170.1640625 85.19921875 C-179.93873742 76.98788469 -185.28778604 64.57910183 -186.6796875 52.0859375 C-188.03689961 33.00271266 -183.44804804 15.30216455 -170.859375 0.45703125 C-128.93724528 -45.14643244 -44.43479316 -37.80273448 0 0 Z " fill="#FEFEFE" transform="translate(624.6796875,342.9140625)"/>
<path d="M0 0 C67.65 0 135.3 0 205 0 C205 14.85 205 29.7 205 45 C180.91 45 156.82 45 132 45 C132 104.4 132 163.8 132 225 C112.86 225 93.72 225 74 225 C74 165.6 74 106.2 74 45 C49.58 45 25.16 45 0 45 C0 30.15 0 15.3 0 0 Z " fill="#F097BF" transform="translate(219,317)"/>
<path d="M0 0 C3.26719578 2.01219997 5.79161024 4.47077127 8.375 7.3125 C9.66312576 8.58692229 10.9551371 9.85742349 12.25 11.125 C15.44794283 14.32294283 18.45298015 17.62831977 21.40234375 21.0546875 C23.80701516 23.80696488 26.27491795 26.4987632 28.75 29.1875 C33.66319384 34.52861987 38.52879501 39.91045788 43.375 45.3125 C44.87471128 46.97942647 46.37471321 48.64609149 47.875 50.3125 C50.875 53.64583333 53.875 56.97916667 56.875 60.3125 C57.62007812 61.14007813 58.36515625 61.96765625 59.1328125 62.8203125 C60.60792618 64.45989879 62.08191652 66.10049655 63.5546875 67.7421875 C67.67597768 72.3328061 71.82373788 76.89697107 76 81.4375 C79.55753099 85.30617822 83.05789575 89.21584125 86.5 93.1875 C88.92050639 95.93074058 91.39730045 98.62106918 93.875 101.3125 C114.98811964 124.28780609 114.98811964 124.28780609 114.68359375 137.5078125 C113.76190874 145.8846459 108.97621927 151.40194318 103.375 157.3125 C101.91333004 158.93449939 100.45515659 160.55965467 99 162.1875 C97.45861431 163.89608685 95.91694581 165.60441862 94.375 167.3125 C92.87471321 168.97890851 91.37471128 170.64557353 89.875 172.3125 C80.875 182.3125 80.875 182.3125 78.6171875 184.8203125 C77.14207382 186.45989879 75.66808348 188.10049655 74.1953125 189.7421875 C70.07402232 194.3328061 65.92626212 198.89697107 61.75 203.4375 C58.19246901 207.30617822 54.69210425 211.21584125 51.25 215.1875 C48.35648991 218.46681143 45.38411641 221.67356712 42.421875 224.890625 C39.86944857 227.66744057 37.34516712 230.46230717 34.875 233.3125 C31.97414384 236.65750638 28.99673401 239.92853256 26 243.1875 C22.50644105 246.98718631 19.0209815 250.79325911 15.5625 254.625 C14.83417969 255.429375 14.10585938 256.23375 13.35546875 257.0625 C11.61863238 259.03571055 9.99935821 261.06006243 8.375 263.125 C3.97214001 268.31277096 -1.96443946 271.26139705 -8.625 272.3125 C-16.4627345 272.91540265 -22.84479324 271.08523338 -28.9375 266.125 C-34.48466752 260.90933652 -37.28289606 254.67432524 -37.875 247.125 C-36.97599398 233.41515814 -27.63365699 225.09880816 -18.7265625 215.62890625 C-16.45447682 213.21034327 -14.22945287 210.76387882 -12.0625 208.25 C-8.99677309 204.69498002 -5.81687953 201.25380601 -2.625 197.8125 C1.16136124 193.72953274 4.89267218 189.61480088 8.53515625 185.40234375 C10.94170156 182.66879441 13.40803196 179.99135994 15.875 177.3125 C18.91390177 174.01223124 21.936561 170.70300653 24.875 167.3125 C27.77586283 163.96748592 30.75354042 160.69672604 33.75 157.4375 C34.22002441 156.92550049 34.69004883 156.41350098 35.17431641 155.88598633 C37.41609927 153.4440856 39.65955532 151.0037926 41.90625 148.56640625 C42.6796875 147.71949219 43.453125 146.87257813 44.25 146 C44.92804688 145.26136719 45.60609375 144.52273438 46.3046875 143.76171875 C48.8637172 140.73433833 51.10369491 137.56117854 53.375 134.3125 C52.98755615 133.9 52.6001123 133.4875 52.20092773 133.0625 C39.31734229 119.33430906 39.31734229 119.33430906 34.2109375 113.3984375 C31.65008065 110.48886823 29.01086456 107.65405922 26.375 104.8125 C22.5886166 100.72955422 18.85732698 96.6147999 15.21484375 92.40234375 C12.80829879 89.66879481 10.34198556 86.99134343 7.875 84.3125 C4.85573504 81.03394895 1.85297862 77.74669043 -1.0625 74.375 C-4.17464295 70.78291211 -7.39375835 67.29701718 -10.625 63.8125 C-14.45115789 59.68569864 -18.23886574 55.53915753 -21.90625 51.26953125 C-23.21143877 49.78339585 -24.55124145 48.32757544 -25.90625 46.88671875 C-33.64609324 38.60659425 -37.99897886 31.97088445 -37.625 20.3125 C-36.43961265 11.86505539 -32.45815778 6.2276896 -25.91796875 0.9296875 C-18.76076665 -3.52991991 -7.53691853 -3.5105419 0 0 Z " fill="#70C7F1" transform="translate(834.625,288.6875)"/>
<path d="M0 0 C6.82223529 3.98803902 10.92177875 10.03924224 13.08984375 17.58203125 C14.56112809 26.25560274 12.26363913 32.83034504 7.5 40 C5.18928558 42.840336 2.69352571 45.45529167 0.125 48.0625 C-1.15499151 49.38541806 -2.43364132 50.70963562 -3.7109375 52.03515625 C-4.34032227 52.68629395 -4.96970703 53.33743164 -5.61816406 54.00830078 C-8.11178824 56.64750499 -10.48954193 59.37804283 -12.86572266 62.12280273 C-15.19359734 64.79669405 -17.59412514 67.39599427 -20 70 C-23.02004872 73.2778141 -26.02204137 76.56583268 -28.9375 79.9375 C-32.56144644 84.12032011 -36.33255746 88.16271807 -40.09521484 92.22021484 C-43.34615512 95.73212744 -46.52984313 99.29001418 -49.66015625 102.91015625 C-52.0667026 105.64370678 -54.53308457 108.32109049 -57 111 C-60.65309423 114.96871763 -64.26242571 118.96805755 -67.796875 123.04296875 C-70.99962159 126.72318902 -74.25410388 130.35785163 -77.5 134 C-73.39608887 139.7349894 -68.94291685 144.91602558 -64.0625 150 C-59.64957433 154.62521586 -55.32534461 159.29527121 -51.13647461 164.125 C-48.80543073 166.79580665 -46.40571171 169.39617085 -44 172 C-40.96031004 175.29952777 -37.93841941 178.60951607 -35 182 C-31.63677362 185.87817013 -28.16664329 189.65527811 -24.69189453 193.43310547 C-20.25776372 198.25584891 -15.8748176 203.1234112 -11.5 208 C-10.00028872 209.66692647 -8.50028679 211.33359149 -7 213 C-6.26136719 213.825 -5.52273437 214.65 -4.76171875 215.5 C-3.23976172 217.18230138 -1.70022633 218.84884768 -0.14453125 220.5 C7.01679393 228.17713252 13.2756301 235.36436964 13.66015625 246.26953125 C13.20762726 253.98459873 10.81003205 259.70703736 5.46875 265.30859375 C-0.64790318 270.56357555 -7.5270427 272.52281687 -15.5 272 C-24.6583456 269.83007839 -30.74171415 265.13768233 -36.9375 258.25 C-37.51097168 257.6223877 -38.08444336 256.99477539 -38.67529297 256.34814453 C-42.06772105 252.62427787 -45.41138019 248.86008434 -48.703125 245.046875 C-51.05364953 242.36932097 -53.46314604 239.74715185 -55.875 237.125 C-60.78795947 231.78366259 -65.65379208 226.40204539 -70.5 221 C-71.99971128 219.33307353 -73.49971321 217.66640851 -75 216 C-81 209.33333333 -87 202.66666667 -93 196 C-94.11761719 194.75863281 -94.11761719 194.75863281 -95.2578125 193.4921875 C-96.73292618 191.85260121 -98.20691652 190.21200345 -99.6796875 188.5703125 C-103.80097852 183.97969297 -107.94879941 179.41558619 -112.125 174.875 C-115.72165376 170.96280705 -119.2744362 167.01987034 -122.74609375 162.99609375 C-124.07014012 161.48921692 -125.4213782 160.00617155 -126.78515625 158.53515625 C-134.62217802 150.06097824 -138.95284578 143.63089347 -138.765625 131.8671875 C-137.89079577 122.42417782 -131.77897217 116.57950417 -125.5 110 C-124.36687498 108.71545515 -123.24129063 107.42420091 -122.125 106.125 C-118.67080696 102.15669451 -115.10869442 98.28987441 -111.54516602 94.42016602 C-109.012893 91.66561908 -106.50979797 88.89274925 -104.0625 86.0625 C-100.43855356 81.87967989 -96.66744254 77.83728193 -92.90478516 73.77978516 C-89.65384488 70.26787256 -86.47015687 66.70998582 -83.33984375 63.08984375 C-80.46015095 59.81885511 -77.49645747 56.62496909 -74.54443359 53.41943359 C-72.01245176 50.66508903 -69.50957199 47.8924879 -67.0625 45.0625 C-63.43855356 40.87967989 -59.66744254 36.83728193 -55.90478516 32.77978516 C-52.65702976 29.27131312 -49.47748957 25.71586633 -46.34765625 22.1015625 C-43.89081118 19.30709602 -41.38654684 16.55779559 -38.875 13.8125 C-38.41923584 13.31290771 -37.96347168 12.81331543 -37.49389648 12.29858398 C-27.10147339 0.97082395 -15.7972348 -7.16526023 0 0 Z " fill="#70C7F1" transform="translate(197.5,289)"/>
<path d="M0 0 C6.63046352 4.43595612 10.57482861 9.5787598 12.59765625 17.2734375 C15.02170899 31.81775391 4.8157414 49.95773533 0 63.375 C-0.66641802 65.23647707 -1.33283418 67.09795481 -1.99906635 68.95949841 C-9.1191725 88.85015312 -16.33058233 108.70731768 -23.56640625 128.55615234 C-28.86423249 143.09400664 -34.11475689 157.64799368 -39.32531738 172.21734619 C-40.49096399 175.47474885 -41.65865605 178.73141016 -42.82714844 181.98779297 C-43.21252777 183.06186401 -43.5979071 184.13593506 -43.9949646 185.24255371 C-44.77814137 187.42526903 -45.56136498 189.60796755 -46.34463501 191.79064941 C-48.6949112 198.34487466 -51.03326692 204.90323918 -53.36235619 211.46501732 C-55.39562454 217.19081383 -57.44353823 222.91128729 -59.49560547 228.63037109 C-60.3646912 231.06039537 -61.2288926 233.49217275 -62.08789062 235.92578125 C-63.2815067 239.30550047 -64.49227934 242.67861132 -65.70703125 246.05078125 C-66.05316971 247.04414993 -66.39930817 248.03751862 -66.75593567 249.06098938 C-69.44472816 256.44131648 -73.02947738 263.90138288 -80.125 267.9375 C-80.76695312 268.31777344 -81.40890625 268.69804688 -82.0703125 269.08984375 C-87.99586333 271.88468857 -95.3076728 272.09465307 -101.54296875 270.24609375 C-109.82377459 266.70906613 -114.2626572 262.16465658 -118 254 C-120.84907901 246.07817055 -118.23802924 238.62335842 -115.578125 231.09375 C-115.03856171 229.5234906 -115.03856171 229.5234906 -114.48809814 227.92150879 C-110.78024297 217.19946635 -106.90247103 206.53700405 -102.99304199 195.88711548 C-100.79977491 189.9107696 -98.61860378 183.9300124 -96.4375 177.94921875 C-95.98791931 176.71680954 -95.53833862 175.48440033 -95.07513428 174.21464539 C-90.23745801 160.93625104 -85.49067097 147.62576654 -80.75 134.3125 C-74.23604654 116.02962582 -67.69691672 97.75685532 -61.02880859 79.52954102 C-60.38506989 77.76970179 -59.74135263 76.00985471 -59.09765625 74.25 C-58.77553162 73.36960556 -58.45340698 72.48921112 -58.121521 71.58213806 C-55.81655972 65.26987435 -53.54616512 58.94575554 -51.28791809 52.61663818 C-49.57781249 47.82896464 -47.85689349 43.04521215 -46.13479614 38.26184082 C-45.30361841 35.94482794 -44.47723743 33.62608798 -43.65597534 31.30554199 C-42.50981683 28.06880992 -41.34660183 24.83867191 -40.1796875 21.609375 C-39.67900002 20.17489014 -39.67900002 20.17489014 -39.16819763 18.71142578 C-36.11653224 10.35976498 -32.07712996 3.28582406 -24 -1 C-15.6900252 -4.07776844 -7.92939687 -3.90242569 0 0 Z " fill="#F098C0" transform="translate(764,298)"/>
</svg>
