<?xml version="1.0" encoding="UTF-8"?>
<svg version="1.1" xmlns="http://www.w3.org/2000/svg" width="1000" height="1000">
<path d="M0 0 C5.02690134 0.00020664 10.05379719 -0.00533949 15.08069587 -0.01005757 C24.89936145 -0.01830887 34.71802102 -0.0211099 44.53668979 -0.02166995 C52.53209003 -0.0221478 60.52748832 -0.02421589 68.52288795 -0.02737057 C91.27447886 -0.03616254 114.02606509 -0.0407923 136.77765772 -0.0400401 C138.61148187 -0.03998016 138.61148187 -0.03998016 140.48235297 -0.03991902 C142.31845969 -0.0398577 142.31845969 -0.0398577 144.19165948 -0.03979514 C164.00189143 -0.03938922 183.81210432 -0.04894903 203.62233075 -0.06305739 C224.04484985 -0.07748508 244.46735969 -0.08432406 264.889884 -0.08346361 C276.32270036 -0.08313381 287.75549675 -0.08578459 299.18830848 -0.09664166 C308.92647921 -0.10583138 318.66462092 -0.10785354 328.40279415 -0.10113224 C333.3531425 -0.09790896 338.30343545 -0.09765439 343.25377822 -0.10648549 C361.90010453 -0.13757569 380.49437337 0.01068105 399.11571479 1.05119121 C399.83900197 1.09112329 400.56228916 1.13105536 401.30749413 1.1721975 C463.52642169 4.70479199 529.87252224 20.6081555 577.48772407 63.14538372 C577.98643012 63.58527629 578.48513618 64.02516887 578.99895453 64.47839153 C637.00439236 115.81593098 657.32632644 190.85278937 661.94708149 265.79507293 C662.71929146 278.84427625 662.76900498 291.88265618 662.74651313 304.9517802 C662.74813767 307.67287316 662.75273103 310.39395955 662.75713325 313.11504924 C662.76589435 319.65144274 662.76416578 326.18778958 662.75830796 332.72418468 C662.7537376 338.05069008 662.75320136 343.37718265 662.7553556 348.70368946 C662.75566206 349.47012664 662.75596853 350.23656383 662.75628428 351.02622639 C662.75692392 352.58463244 662.75757235 354.14303848 662.75822946 355.70144451 C662.76389394 370.21775336 662.75743671 384.7340367 662.74662873 399.25034136 C662.7376986 411.6262569 662.73924845 424.00213487 662.74846625 436.37804973 C662.75924141 450.85106336 662.76334311 465.32405479 662.75724173 479.79707187 C662.75660482 481.34913532 662.75597608 482.90119876 662.7553556 484.45326221 C662.75504705 485.21632979 662.75473849 485.97939737 662.75442059 486.76558821 C662.75271508 492.06689465 662.75560154 497.36818648 662.7603147 502.66949069 C662.81496393 570.22507652 661.40313339 637.93630209 631.48772407 700.14538372 C631.11679633 700.91769329 630.7458686 701.69000286 630.36370063 702.48571575 C604.22327398 756.02309448 557.21022057 794.86763698 501.22209907 814.30651653 C486.55161406 819.28696875 471.68177707 823.1506349 456.48772407 826.14538372 C455.51770453 826.33825969 454.547685 826.53113567 453.54827094 826.72985637 C446.556025 828.08552001 439.54469986 829.18572146 432.48772407 830.14538372 C431.43294868 830.29104778 430.37817328 830.43671184 429.291435 830.58678997 C406.75947802 833.53700787 384.11625267 833.59106757 361.43010688 833.67931926 C360.15638221 833.68944545 358.88265754 833.69957164 357.57033515 833.71000469 C355.18174813 833.72873128 352.79303181 833.73618945 350.40438056 833.72956645 C334.83670584 833.8748499 319.5651853 837.41223064 307.96038032 848.36413372 C302.52348262 854.47956998 297.87997253 861.24059559 293.12004828 867.88610637 C291.00682508 870.81098934 288.82348479 873.66839054 286.61272407 876.52038372 C285.82639594 877.53616497 285.04006782 878.55194622 284.22991157 879.59850872 C283.80419868 880.14829387 283.37848578 880.69807903 282.9398725 881.26452434 C274.08702243 892.73095961 265.34980076 904.27868354 256.78874946 915.96447551 C251.64580253 922.9685542 246.39295963 929.88608491 241.10588813 936.78185833 C236.94561483 942.20682972 236.94561483 942.20682972 232.89788032 947.71569622 C219.99805357 965.58417233 203.75195126 979.21873062 181.48772407 983.14538372 C160.66499527 984.70381031 143.55194676 981.04736825 126.80022407 967.89538372 C116.70190746 959.19395241 109.04111013 949.03386385 101.26116157 938.30944622 C97.41992884 933.02347535 93.46353422 927.83051477 89.48772407 922.64538372 C84.4205787 916.02640231 79.41345195 909.37027483 74.48772407 902.64538372 C68.85618864 894.95861984 63.11645919 887.3602537 57.32341743 879.79455364 C53.69605041 875.05515355 50.10375597 870.29404228 46.55803657 865.49328411 C35.29138844 850.28440369 23.89684129 837.90161785 4.21076179 834.59495342 C0.68417723 834.16910612 -2.70669027 834.00148457 -6.2566607 833.97179973 C-7.56075387 833.95830989 -8.86484704 833.94482006 -10.20845819 833.93092144 C-11.24334721 833.92333151 -11.24334721 833.92333151 -12.29914308 833.91558826 C-14.5049435 833.89890219 -16.71059178 833.87564057 -18.91631341 833.85069072 C-25.18625715 833.78079962 -31.45627513 833.72113792 -37.72638726 833.66857708 C-63.8195833 833.44405094 -89.85496317 832.75245695 -115.76227593 829.33288372 C-116.41140954 829.24890331 -117.06054315 829.1649229 -117.72934747 829.07839763 C-160.79775243 823.47908399 -204.75090688 812.50008198 -239.51227593 785.14538372 C-240.9141314 784.07417278 -240.9141314 784.07417278 -242.34430718 782.98132122 C-259.64363939 769.36954337 -272.41347559 753.00166136 -283.51227593 734.14538372 C-284.04183892 733.2532719 -284.04183892 733.2532719 -284.58210015 732.34313762 C-308.77935021 691.04912305 -316.21884196 640.12119803 -319.51227593 593.14538372 C-319.59530843 592.01471981 -319.67834092 590.8840559 -319.76388955 589.71912944 C-320.71708606 575.60457906 -320.66924028 561.48674525 -320.6723187 547.34628332 C-320.67419555 543.62402769 -320.68175553 539.90178237 -320.68845391 536.17953289 C-320.70193362 528.06700584 -320.70804595 519.95448381 -320.71246457 511.84194744 C-320.71524529 506.75632425 -320.71948583 501.67070291 -320.72396874 496.58508098 C-320.73614904 482.44728517 -320.74645002 468.30949081 -320.74984384 454.17168987 C-320.7500634 453.26991567 -320.75028297 452.36814147 -320.75050919 451.43904078 C-320.75072747 450.53535832 -320.75094574 449.63167586 -320.75117064 448.70060909 C-320.75161407 446.87002615 -320.75206063 445.03944321 -320.75251031 443.20886028 C-320.75273174 442.30086728 -320.75295317 441.39287428 -320.75318131 440.45736635 C-320.75711956 425.78304222 -320.77454939 411.10876803 -320.79786983 396.43446314 C-320.82173296 381.29382102 -320.83405246 366.1532038 -320.83521175 351.01254261 C-320.8361203 342.54192298 -320.84166173 334.07136843 -320.86003137 325.60076702 C-320.87563624 318.38067343 -320.88043562 311.16066502 -320.87229326 303.94055772 C-320.86845691 300.27447391 -320.86895875 296.60856047 -320.88335061 292.94249904 C-320.93996785 277.59588262 -320.49383424 262.40396186 -319.13452935 247.11999309 C-319.04266083 246.08017709 -319.04266083 246.08017709 -318.94893637 245.0193547 C-315.45772797 206.34401482 -306.65064803 168.12695273 -289.51227593 133.14538372 C-288.97715386 132.04637737 -288.97715386 132.04637737 -288.43122125 130.92516887 C-261.773055 76.81616447 -214.15578555 38.51869436 -157.51227593 19.14538372 C-106.20544963 2.23410101 -53.52251013 -0.01376642 0 0 Z " fill="#FEFEFE" transform="translate(329.51227593421936,7.854616284370422)"/>
<path d="M0 0 C5.02690134 0.00020664 10.05379719 -0.00533949 15.08069587 -0.01005757 C24.89936145 -0.01830887 34.71802102 -0.0211099 44.53668979 -0.02166995 C52.53209003 -0.0221478 60.52748832 -0.02421589 68.52288795 -0.02737057 C91.27447886 -0.03616254 114.02606509 -0.0407923 136.77765772 -0.0400401 C138.61148187 -0.03998016 138.61148187 -0.03998016 140.48235297 -0.03991902 C142.31845969 -0.0398577 142.31845969 -0.0398577 144.19165948 -0.03979514 C164.00189143 -0.03938922 183.81210432 -0.04894903 203.62233075 -0.06305739 C224.04484985 -0.07748508 244.46735969 -0.08432406 264.889884 -0.08346361 C276.32270036 -0.08313381 287.75549675 -0.08578459 299.18830848 -0.09664166 C308.92647921 -0.10583138 318.66462092 -0.10785354 328.40279415 -0.10113224 C333.3531425 -0.09790896 338.30343545 -0.09765439 343.25377822 -0.10648549 C361.90010453 -0.13757569 380.49437337 0.01068105 399.11571479 1.05119121 C399.83900197 1.09112329 400.56228916 1.13105536 401.30749413 1.1721975 C463.52642169 4.70479199 529.87252224 20.6081555 577.48772407 63.14538372 C577.98643012 63.58527629 578.48513618 64.02516887 578.99895453 64.47839153 C637.00439236 115.81593098 657.32632644 190.85278937 661.94708149 265.79507293 C662.71929146 278.84427625 662.76900498 291.88265618 662.74651313 304.9517802 C662.74813767 307.67287316 662.75273103 310.39395955 662.75713325 313.11504924 C662.76589435 319.65144274 662.76416578 326.18778958 662.75830796 332.72418468 C662.7537376 338.05069008 662.75320136 343.37718265 662.7553556 348.70368946 C662.75566206 349.47012664 662.75596853 350.23656383 662.75628428 351.02622639 C662.75692392 352.58463244 662.75757235 354.14303848 662.75822946 355.70144451 C662.76389394 370.21775336 662.75743671 384.7340367 662.74662873 399.25034136 C662.7376986 411.6262569 662.73924845 424.00213487 662.74846625 436.37804973 C662.75924141 450.85106336 662.76334311 465.32405479 662.75724173 479.79707187 C662.75660482 481.34913532 662.75597608 482.90119876 662.7553556 484.45326221 C662.75504705 485.21632979 662.75473849 485.97939737 662.75442059 486.76558821 C662.75271508 492.06689465 662.75560154 497.36818648 662.7603147 502.66949069 C662.81496393 570.22507652 661.40313339 637.93630209 631.48772407 700.14538372 C631.11679633 700.91769329 630.7458686 701.69000286 630.36370063 702.48571575 C604.22327398 756.02309448 557.21022057 794.86763698 501.22209907 814.30651653 C486.55161406 819.28696875 471.68177707 823.1506349 456.48772407 826.14538372 C455.51770453 826.33825969 454.547685 826.53113567 453.54827094 826.72985637 C446.556025 828.08552001 439.54469986 829.18572146 432.48772407 830.14538372 C431.43294868 830.29104778 430.37817328 830.43671184 429.291435 830.58678997 C406.75947802 833.53700787 384.11625267 833.59106757 361.43010688 833.67931926 C360.15638221 833.68944545 358.88265754 833.69957164 357.57033515 833.71000469 C355.18174813 833.72873128 352.79303181 833.73618945 350.40438056 833.72956645 C334.83670584 833.8748499 319.5651853 837.41223064 307.96038032 848.36413372 C302.52348262 854.47956998 297.87997253 861.24059559 293.12004828 867.88610637 C291.00682508 870.81098934 288.82348479 873.66839054 286.61272407 876.52038372 C285.82639594 877.53616497 285.04006782 878.55194622 284.22991157 879.59850872 C283.80419868 880.14829387 283.37848578 880.69807903 282.9398725 881.26452434 C274.08702243 892.73095961 265.34980076 904.27868354 256.78874946 915.96447551 C251.64580253 922.9685542 246.39295963 929.88608491 241.10588813 936.78185833 C236.94561483 942.20682972 236.94561483 942.20682972 232.89788032 947.71569622 C219.99805357 965.58417233 203.75195126 979.21873062 181.48772407 983.14538372 C160.66499527 984.70381031 143.55194676 981.04736825 126.80022407 967.89538372 C116.70190746 959.19395241 109.04111013 949.03386385 101.26116157 938.30944622 C97.41992884 933.02347535 93.46353422 927.83051477 89.48772407 922.64538372 C84.4205787 916.02640231 79.41345195 909.37027483 74.48772407 902.64538372 C68.85618864 894.95861984 63.11645919 887.3602537 57.32341743 879.79455364 C53.69605041 875.05515355 50.10375597 870.29404228 46.55803657 865.49328411 C35.29138844 850.28440369 23.89684129 837.90161785 4.21076179 834.59495342 C0.68417723 834.16910612 -2.70669027 834.00148457 -6.2566607 833.97179973 C-7.56075387 833.95830989 -8.86484704 833.94482006 -10.20845819 833.93092144 C-11.24334721 833.92333151 -11.24334721 833.92333151 -12.29914308 833.91558826 C-14.5049435 833.89890219 -16.71059178 833.87564057 -18.91631341 833.85069072 C-25.18625715 833.78079962 -31.45627513 833.72113792 -37.72638726 833.66857708 C-63.8195833 833.44405094 -89.85496317 832.75245695 -115.76227593 829.33288372 C-116.41140954 829.24890331 -117.06054315 829.1649229 -117.72934747 829.07839763 C-160.79775243 823.47908399 -204.75090688 812.50008198 -239.51227593 785.14538372 C-240.9141314 784.07417278 -240.9141314 784.07417278 -242.34430718 782.98132122 C-259.64363939 769.36954337 -272.41347559 753.00166136 -283.51227593 734.14538372 C-284.04183892 733.2532719 -284.04183892 733.2532719 -284.58210015 732.34313762 C-308.77935021 691.04912305 -316.21884196 640.12119803 -319.51227593 593.14538372 C-319.59530843 592.01471981 -319.67834092 590.8840559 -319.76388955 589.71912944 C-320.71708606 575.60457906 -320.66924028 561.48674525 -320.6723187 547.34628332 C-320.67419555 543.62402769 -320.68175553 539.90178237 -320.68845391 536.17953289 C-320.70193362 528.06700584 -320.70804595 519.95448381 -320.71246457 511.84194744 C-320.71524529 506.75632425 -320.71948583 501.67070291 -320.72396874 496.58508098 C-320.73614904 482.44728517 -320.74645002 468.30949081 -320.74984384 454.17168987 C-320.7500634 453.26991567 -320.75028297 452.36814147 -320.75050919 451.43904078 C-320.75072747 450.53535832 -320.75094574 449.63167586 -320.75117064 448.70060909 C-320.75161407 446.87002615 -320.75206063 445.03944321 -320.75251031 443.20886028 C-320.75273174 442.30086728 -320.75295317 441.39287428 -320.75318131 440.45736635 C-320.75711956 425.78304222 -320.77454939 411.10876803 -320.79786983 396.43446314 C-320.82173296 381.29382102 -320.83405246 366.1532038 -320.83521175 351.01254261 C-320.8361203 342.54192298 -320.84166173 334.07136843 -320.86003137 325.60076702 C-320.87563624 318.38067343 -320.88043562 311.16066502 -320.87229326 303.94055772 C-320.86845691 300.27447391 -320.86895875 296.60856047 -320.88335061 292.94249904 C-320.93996785 277.59588262 -320.49383424 262.40396186 -319.13452935 247.11999309 C-319.04266083 246.08017709 -319.04266083 246.08017709 -318.94893637 245.0193547 C-315.45772797 206.34401482 -306.65064803 168.12695273 -289.51227593 133.14538372 C-288.97715386 132.04637737 -288.97715386 132.04637737 -288.43122125 130.92516887 C-261.773055 76.81616447 -214.15578555 38.51869436 -157.51227593 19.14538372 C-106.20544963 2.23410101 -53.52251013 -0.01376642 0 0 Z M-97.51227593 23.39538372 C-98.75444879 23.61154338 -99.99662164 23.82770305 -101.27643609 24.05041301 C-142.83377753 31.46664553 -181.63784774 44.35656024 -215.51227593 70.14538372 C-216.39399468 70.80280559 -217.27571343 71.46022747 -218.18415093 72.13757122 C-237.33433125 87.05149952 -253.69573354 105.95637738 -265.51227593 127.14538372 C-265.95394097 127.92526653 -266.39560601 128.70514934 -266.85065484 129.50866497 C-278.42050356 150.12192465 -287.07437528 172.12622774 -292.51227593 195.14538372 C-292.71659234 195.98939739 -292.92090875 196.83341106 -293.13141656 197.7030009 C-296.16795936 210.4592328 -298.19840325 223.26441755 -299.76227593 236.27038372 C-299.8452694 236.95899486 -299.92826287 237.64760601 -300.0137713 238.35708416 C-301.62611267 251.91521597 -302.66501889 265.40977028 -302.6459887 279.07197368 C-302.64825426 280.29388477 -302.65051982 281.51579586 -302.65285403 282.77473456 C-302.65804028 286.12268669 -302.65884737 289.47058456 -302.65765965 292.81853676 C-302.6574537 296.44745312 -302.66299314 300.07636179 -302.66771722 303.70527446 C-302.67598581 310.8024588 -302.67877044 317.89963483 -302.6793296 324.99682359 C-302.67980706 330.78043689 -302.68187325 336.5640475 -302.68503022 342.34765995 C-302.69383051 358.80971395 -302.69845119 375.27176148 -302.69769975 391.73381785 C-302.69765979 392.619305 -302.69761984 393.50479214 -302.69757867 394.41711223 C-302.69753779 395.30370463 -302.69749691 396.19029702 -302.69745479 397.10375585 C-302.69704966 411.4233392 -302.70658714 425.74289608 -302.72071704 440.06247178 C-302.73517057 454.82894826 -302.74198216 469.59541191 -302.74112326 484.36189562 C-302.74079411 492.62628739 -302.74341466 500.8906515 -302.75430131 509.15503681 C-302.7635259 516.20213674 -302.76548617 523.24919653 -302.75879189 530.29629997 C-302.75558415 533.87510947 -302.75525336 537.45384252 -302.76414514 541.03264415 C-302.81753928 567.44762088 -301.84735878 593.91871127 -298.51227593 620.14538372 C-298.37184869 621.30795696 -298.37184869 621.30795696 -298.22858453 622.49401653 C-292.3444288 670.62660296 -278.86688156 718.63954355 -245.51227593 755.14538372 C-244.68727593 756.06448528 -243.86227593 756.98358684 -243.01227593 757.93053997 C-209.92651993 792.98328451 -159.84048727 805.40608515 -113.76227593 811.33288372 C-112.57633843 811.48781291 -111.39040093 811.64274211 -110.16852593 811.80236614 C-90.23396702 814.21664519 -70.23623314 815.27488753 -50.16852593 815.45397747 C-48.99603925 815.46452065 -48.99603925 815.46452065 -47.79986596 815.47527683 C-40.56298205 815.53642244 -33.32602024 815.57445189 -26.08893609 815.60168254 C-22.06772301 815.61768579 -18.046807 815.64797773 -14.02574944 815.68644702 C-12.52375738 815.69792143 -11.02171234 815.7040258 -9.51967645 815.70412815 C11.53018972 815.7060904 31.11569478 821.6344876 46.73772407 836.23132122 C56.46119574 846.17643085 64.31559464 858.1899201 72.51360297 869.38244426 C76.60324052 874.96577379 80.77985807 880.46741542 85.01897407 885.93835247 C87.75533305 889.47868188 90.43437249 893.06107994 93.11272407 896.64538372 C98.54539027 903.91292983 104.03854088 911.13321644 109.54900336 918.34191692 C113.21004652 923.13625506 116.83719827 927.9521242 120.4218061 932.80383098 C130.91594508 946.96699907 141.98626701 960.08795536 159.81584907 964.75475872 C173.87662994 966.81042843 186.60044698 964.89936562 198.67522407 957.02038372 C210.28691537 948.14640825 218.42259786 937.15381178 226.85686469 925.395872 C229.11089325 922.28544756 231.44271381 919.24023419 233.80022407 916.20788372 C236.76895148 912.3758753 239.71213037 908.52922951 242.61272407 904.64538372 C246.0820879 900.00120885 249.58995258 895.38817534 253.11101508 890.78307903 C259.03365555 883.03566288 264.90983812 875.26066939 270.67522407 867.39538372 C275.2111385 861.21297618 279.78135887 855.05974582 284.42522407 848.95788372 C284.93271186 848.28724895 285.44019965 847.61661418 285.96306586 846.92565715 C298.74108031 830.21224045 313.40407793 819.86590863 334.48772407 816.14538372 C338.87042958 815.76718428 343.21940857 815.72686021 347.61663032 815.73913372 C350.12411829 815.71932107 352.63160524 815.69937803 355.13909125 815.67931926 C356.43181952 815.67427379 357.7245478 815.66922832 359.05644965 815.66402996 C365.80100831 815.63254078 372.54464245 815.5456117 379.28850532 815.44616497 C379.95314166 815.43654043 380.61777801 815.42691589 381.30255485 815.4169997 C453.30602153 814.32828791 525.23711182 796.80778191 578.30022407 745.58288372 C582.6772192 741.04133989 586.58321566 736.09197375 590.48772407 731.14538372 C591.20959907 730.24046184 591.93147407 729.33553997 592.67522407 728.40319622 C623.55884347 688.58538691 637.33461766 638.48835445 642.10519004 589.02685916 C642.38060068 586.23233748 642.67448854 583.44298441 642.98212028 580.65209186 C644.59544209 565.36554622 644.77205397 550.19805947 644.74651313 534.83825481 C644.74813204 532.06273886 644.75272383 529.28722945 644.75713325 526.51171672 C644.76594463 519.80899337 644.76414204 513.10631525 644.75830796 506.40359025 C644.75375628 500.94382613 644.75319356 495.48407452 644.7553556 490.02430904 C644.75566206 489.24162074 644.75596853 488.45893245 644.75628428 487.65252633 C644.75692386 486.06149855 644.75757229 484.47047078 644.75822946 482.879443 C644.76390919 468.01945553 644.7574133 453.15949288 644.74662873 438.29950948 C644.73770596 425.61351892 644.73923936 412.92756501 644.74846625 400.24157512 C644.75922917 385.43722376 644.76334907 370.6328941 644.75724173 355.82853937 C644.75660477 354.24214391 644.75597603 352.65574845 644.7553556 351.06935298 C644.75504705 350.28924712 644.75473849 349.50914125 644.75442059 348.70539581 C644.75271081 343.2700663 644.75557138 337.83475082 644.7603147 332.39942348 C644.76599148 325.74945545 644.76426779 319.09953446 644.75375322 312.44957165 C644.74858438 309.07181147 644.74740668 305.69419186 644.75305152 302.3164233 C644.87042088 224.84975701 632.10582192 143.54402696 575.48772407 86.14538372 C553.44401113 64.09452765 526.47898941 49.07170865 497.48772407 38.14538372 C496.26311469 37.67229778 495.03850532 37.19921184 493.77678657 36.71178997 C467.41297552 26.84840611 439.36310302 22.84108083 411.48772407 20.14538372 C410.57063226 20.0244648 410.57063226 20.0244648 409.63501334 19.90110308 C400.80976027 18.82945715 391.94638436 19.00329607 383.072685 19.01167095 C381.19342543 19.00980107 379.31416625 19.00749966 377.43490767 19.00480562 C372.28577188 18.9987025 367.13665236 18.99881948 361.98751378 19 C356.42749223 19.0002044 350.86747586 18.99468131 345.30745673 18.98994243 C334.41672992 18.98164201 323.52600853 18.97888781 312.63527882 18.97833005 C303.77418313 18.97785433 294.91308922 18.97579675 286.05199409 18.97262943 C264.99005367 18.96525496 243.92811435 18.9591045 222.86617255 18.95962799 C221.85632131 18.95965135 221.85632131 18.95965135 220.82606904 18.95967519 C217.41424476 18.9597583 214.00242048 18.95985734 210.5905962 18.9599599 C209.57429844 18.95998982 209.57429844 18.95998982 208.53746942 18.96002034 C207.16733139 18.96006078 205.79719336 18.96010258 204.42705533 18.96014573 C183.1442115 18.96075751 161.86138364 18.95326941 140.57854438 18.93957317 C116.63383273 18.92417006 92.68913307 18.91562224 68.74441504 18.91653639 C56.07986451 18.91686736 43.41533197 18.91416451 30.75078559 18.90335834 C19.95980359 18.89420962 9.16884774 18.89211351 -1.62213647 18.89886776 C-7.11796843 18.90211186 -12.61375036 18.90226707 -18.10957742 18.89351451 C-57.96876356 18.77608054 -57.96876356 18.77608054 -97.51227593 23.39538372 Z " fill="#16120F" transform="translate(329.51227593421936,7.854616284370422)"/>
<path d="M0 0 C1.32368088 -0.00110275 1.32368088 -0.00110275 2.67410278 -0.00222778 C23.9468856 0.04422512 43.5483533 2.97260549 62.8125 12.4375 C63.96878906 12.994375 65.12507812 13.55125 66.31640625 14.125 C78.17109999 20.17131369 88.13672566 28.38251649 97.8125 37.4375 C96.44903947 40.33920295 94.88610381 42.84913602 92.9765625 45.421875 C92.41211426 46.1852417 91.84766602 46.9486084 91.26611328 47.73510742 C90.6626709 48.54439697 90.05922852 49.35368652 89.4375 50.1875 C88.51106689 51.43720581 88.51106689 51.43720581 87.56591797 52.7121582 C81.6791245 60.64375068 75.75463255 68.54730568 69.8125 76.4375 C69.36011963 76.04933105 68.90773926 75.66116211 68.44165039 75.26123047 C67.17920219 74.17846343 65.91623738 73.09629851 64.65283203 72.01464844 C63.24378306 70.80710581 61.83796932 69.59578713 60.43359375 68.3828125 C48.4662283 58.40643987 35.70534283 52.55737034 20.8125 48.4375 C20.10915527 48.24172363 19.40581055 48.04594727 18.68115234 47.84423828 C5.27878917 44.47486194 -12.64626316 44.0692084 -25.1875 50.4375 C-29.31864874 53.11059624 -32.35678831 55.79744734 -34.1875 60.4375 C-34.85167293 65.55008696 -34.77943138 70.04774805 -32.75 74.8125 C-26.90819408 80.79678899 -19.31736633 83.34580965 -11.375 85.375 C-10.4355957 85.62459473 -9.49619141 85.87418945 -8.52832031 86.13134766 C-0.8826963 88.11552766 6.82727427 89.72217487 14.5625 91.3125 C37.77153784 96.1341015 63.00842148 101.72695413 80.8125 118.4375 C81.37066406 118.95441406 81.92882812 119.47132813 82.50390625 120.00390625 C93.71161253 131.67981958 96.27722886 147.16034796 95.9921875 162.7109375 C95.11013456 181.00394854 88.49297566 196.42867303 75.125 209.125 C49.64129522 230.90694338 14.89091043 234.09617455 -17.3359375 231.87890625 C-34.51656058 230.45234391 -51.51725584 226.71921197 -67.1875 219.4375 C-67.79706543 219.15922363 -68.40663086 218.88094727 -69.03466797 218.59423828 C-79.25032138 213.89203685 -88.31653059 208.34324228 -97.1875 201.4375 C-98.1465625 200.69886719 -99.105625 199.96023438 -100.09375 199.19921875 C-104.78773568 195.35275826 -104.78773568 195.35275826 -106.1875 193.4375 C-106.37943533 188.24610619 -102.40205082 184.19449364 -99.4375 180.25 C-98.26145961 178.65513897 -97.0856867 177.06008068 -95.91015625 175.46484375 C-95.30059082 174.6435498 -94.69102539 173.82225586 -94.06298828 172.97607422 C-90.9638524 168.78122719 -87.922016 164.54526916 -84.875 160.3125 C-83.77500697 158.78886942 -82.6747715 157.26541383 -81.57421875 155.7421875 C-81.11233154 155.10265137 -80.65044434 154.46311523 -80.17456055 153.80419922 C-79.84883057 153.35318848 -79.52310059 152.90217773 -79.1875 152.4375 C-78.74237061 152.81914307 -78.29724121 153.20078613 -77.83862305 153.59399414 C-76.58201272 154.67125664 -75.32507697 155.74813962 -74.06787109 156.82470703 C-72.54841245 158.12794565 -71.03328963 159.4362384 -69.51953125 160.74609375 C-46.11818443 180.51932478 -17.61084299 187.48734489 12.48828125 185.15234375 C20.53707555 184.09894373 27.0852266 181.69692431 32.375 175.375 C34.74534046 170.33664842 34.74596375 164.8398296 33.8125 159.4375 C31.22605944 153.66774799 26.01998115 151.20333314 20.48071289 148.76000977 C12.28874773 145.80654053 3.68506034 144.20945916 -4.8125 142.375 C-6.73853328 141.95101306 -8.66431677 141.52588977 -10.58984375 141.09960938 C-14.34902357 140.26822455 -18.1088585 139.43990882 -21.86914062 138.61352539 C-26.77446881 137.53163392 -31.67594236 136.43516701 -36.5703125 135.3046875 C-37.8505127 135.01062012 -39.13071289 134.71655273 -40.44970703 134.41357422 C-56.52058346 130.2168816 -71.41309799 123.362031 -83.1875 111.4375 C-83.76113281 110.88578125 -84.33476562 110.3340625 -84.92578125 109.765625 C-94.85224401 99.40311607 -96.38398214 86.44073152 -96.5 72.8125 C-96.52900391 71.70003906 -96.55800781 70.58757812 -96.58789062 69.44140625 C-96.71778878 52.27486544 -88.72885513 37.76961682 -77.1875 25.4375 C-56.31413567 5.36555629 -27.92113795 -0.01010395 0 0 Z " fill="#14100D" transform="translate(535.1875,313.5625)"/>
<path d="M0 0 C67.65 0 135.3 0 205 0 C205 14.85 205 29.7 205 45 C180.91 45 156.82 45 132 45 C132 104.4 132 163.8 132 225 C112.53 225 93.06 225 73 225 C73 165.93 73 106.86 73 46 C48.91 46 24.82 46 0 46 C0 30.82 0 15.64 0 0 Z " fill="#F098C0" transform="translate(219,317)"/>
<path d="M0 0 C7.63409143 4.50702579 10.63897464 10.66692392 13.375 18.875 C14.37959214 27.07642433 12.17167354 33.05251956 7.3515625 39.640625 C3.50516156 44.44534426 -0.5451126 48.94387325 -4.96484375 53.22265625 C-7.29182056 55.53868258 -9.40050924 58.02197912 -11.54296875 60.5078125 C-14.18545779 63.51221842 -16.90321314 66.44252389 -19.625 69.375 C-23.41401526 73.46052166 -27.14672537 77.57894051 -30.79296875 81.79296875 C-33.62364261 85.00991793 -36.53267016 88.1547068 -39.43334961 91.30834961 C-43.86736939 96.13103882 -48.25025909 100.99849669 -52.625 105.875 C-54.12471128 107.54192647 -55.62471321 109.20859149 -57.125 110.875 C-57.86492187 111.69742188 -58.60484375 112.51984375 -59.3671875 113.3671875 C-60.89208244 115.06092894 -62.41815402 116.75361169 -63.9453125 118.4453125 C-68.55047371 123.55001662 -73.11264085 128.68811715 -77.625 133.875 C-73.52108887 139.6099894 -69.06791685 144.79102558 -64.1875 149.875 C-59.77175724 154.50316846 -55.44441547 159.17612365 -51.25268555 164.00878906 C-48.96396272 166.63290745 -46.61092726 169.19055633 -44.25 171.75 C-39.33580652 177.09019167 -34.47119233 182.47297199 -29.625 187.875 C-28.12528872 189.54192647 -26.62528679 191.20859149 -25.125 192.875 C-22.125 196.20833333 -19.125 199.54166667 -16.125 202.875 C-15.38121094 203.70128906 -14.63742188 204.52757812 -13.87109375 205.37890625 C-12.383538 207.03203343 -10.89655097 208.68567256 -9.41015625 210.33984375 C-8.67667969 211.15582031 -7.94320312 211.97179687 -7.1875 212.8125 C-6.45015625 213.63878906 -5.7128125 214.46507812 -4.953125 215.31640625 C-3.34750825 217.08096828 -1.70973253 218.81661608 -0.046875 220.52734375 C7.08134593 227.96502337 13.47557668 235.81498577 14.0625 246.5 C13.55335774 254.35210504 10.2229767 260.50148855 4.5 265.8125 C-1.87120495 270.83367267 -7.50635275 272.57029296 -15.59375 272.25 C-29.67278334 270.50826392 -38.47591494 256.7804763 -47.20703125 246.76953125 C-50.28412324 243.24465832 -53.43491949 239.79750897 -56.625 236.375 C-60.41488338 232.29030241 -64.14675392 228.1710265 -67.79296875 223.95703125 C-70.62364261 220.74008207 -73.53267016 217.5952932 -76.43334961 214.44165039 C-80.86736939 209.61896118 -85.25025909 204.75150331 -89.625 199.875 C-91.12471128 198.20807353 -92.62471321 196.54140851 -94.125 194.875 C-112.125 174.875 -112.125 174.875 -114.37890625 172.3671875 C-115.86127852 170.72239879 -117.34817544 169.08167526 -118.83984375 167.4453125 C-121.11951701 164.93727127 -123.37725159 162.41169102 -125.625 159.875 C-126.06054199 159.38708984 -126.49608398 158.89917969 -126.94482422 158.39648438 C-134.8640398 149.470709 -139.40076135 143.12310467 -139.03125 130.8984375 C-137.93625361 122.74913746 -133.50038019 117.25594201 -127.65234375 111.7890625 C-125.73916011 109.98278122 -124.02474348 108.12056434 -122.3125 106.125 C-119.31820621 102.64421912 -116.23658612 99.25074271 -113.125 95.875 C-110.08593308 92.57488699 -107.06343486 89.26550176 -104.125 85.875 C-100.76177362 81.99682987 -97.29164329 78.21972189 -93.81689453 74.44189453 C-89.38276372 69.61915109 -84.9998176 64.7515888 -80.625 59.875 C-79.12528872 58.20807353 -77.62528679 56.54140851 -76.125 54.875 C-75.3825 54.05 -74.64 53.225 -73.875 52.375 C-67.125 44.875 -67.125 44.875 -64.8671875 42.3671875 C-63.39207382 40.72760121 -61.91808348 39.08700345 -60.4453125 37.4453125 C-56.32402024 32.85469158 -52.1761082 28.29067213 -48 23.75 C-44.90508255 20.38229933 -41.82688462 17.00275794 -38.8125 13.5625 C-37.99458984 12.63050781 -37.99458984 12.63050781 -37.16015625 11.6796875 C-36.13927014 10.47956184 -35.14639521 9.25501873 -34.18359375 8.0078125 C-25.70204851 -2.76167001 -12.74635647 -5.86827772 0 0 Z " fill="#70C7F1" transform="translate(197.625,289.125)"/>
<path d="M0 0 C3.27057003 2.01696824 5.78393827 4.46865176 8.375 7.3125 C9.8298392 8.75353617 11.28855459 10.19066403 12.75 11.625 C16.12517522 15.00017522 19.32213209 18.46136786 22.4296875 22.08203125 C24.86223615 24.87115831 27.36678614 27.59167549 29.875 30.3125 C33.47537579 34.22208453 37.01918132 38.17117075 40.5 42.1875 C43.39419336 45.46758581 46.36718892 48.67518057 49.33032227 51.89282227 C51.86240116 54.64723428 54.36535268 57.41992499 56.8125 60.25 C59.92464124 63.84208591 63.14372086 67.32801992 66.375 70.8125 C70.16131688 74.89551022 73.89267049 79.01019717 77.53515625 83.22265625 C79.94170156 85.95620559 82.40803196 88.63364006 84.875 91.3125 C88.47402363 95.22106506 92.02194968 99.16403586 95.4921875 103.1875 C97.46199369 105.41068375 99.49204648 107.57208607 101.52587891 109.73657227 C109.52111269 118.28397771 114.81475487 125.1038908 114.640625 137.19140625 C113.61112293 149.28805562 103.52186012 158.40064684 95.26171875 166.43359375 C92.82369145 168.86152569 90.59831516 171.43963021 88.35546875 174.046875 C85.90894232 176.84566263 83.39423279 179.57939817 80.875 182.3125 C77.83593308 185.61261301 74.81343486 188.92199824 71.875 192.3125 C68.51177362 196.19067013 65.04164329 199.96777811 61.56689453 203.74560547 C57.13276372 208.56834891 52.7498176 213.4359112 48.375 218.3125 C46.87528872 219.97942647 45.37528679 221.64609149 43.875 223.3125 C43.1325 224.1375 42.39 224.9625 41.625 225.8125 C36.375 231.64583333 31.125 237.47916667 25.875 243.3125 C25.13378906 244.13621094 24.39257812 244.95992187 23.62890625 245.80859375 C22.11645985 247.48879851 20.60343141 249.16847951 19.08984375 250.84765625 C18.33832031 251.68167969 17.58679688 252.51570312 16.8125 253.375 C16.07 254.19355469 15.3275 255.01210938 14.5625 255.85546875 C13.1171953 257.47885563 11.69957098 259.12736417 10.3125 260.80078125 C5.05992782 267.0689875 -0.50318716 271.59947687 -8.97265625 272.5859375 C-17.28682264 272.89697106 -23.40375768 271.04086657 -29.69921875 265.48046875 C-35.08765233 259.75313997 -37.69944338 254.1750612 -38 246.3125 C-37.53426783 235.38442735 -32.01369062 230.01898377 -24.625 222.3125 C-23.46948041 221.00851965 -22.32250145 219.6968782 -21.1875 218.375 C-17.75731424 214.42582633 -14.21496482 210.58227695 -10.67211914 206.73461914 C-8.11959547 203.9577363 -5.59524254 201.16277985 -3.125 198.3125 C0.28244919 194.38082786 3.80629673 190.55888756 7.33032227 186.73217773 C9.86240116 183.97776572 12.36535268 181.20507501 14.8125 178.375 C18.43644644 174.19217989 22.20755746 170.14978193 25.97021484 166.09228516 C29.21935241 162.58231999 32.40370294 159.02875236 35.52734375 155.40625 C38.84656369 151.64493523 42.29691512 148.00042727 45.7265625 144.33984375 C48.57586803 141.19589172 50.96298874 137.79990256 53.375 134.3125 C52.95726318 133.86970703 52.53952637 133.42691406 52.10913086 132.97070312 C50.17544849 130.91935083 48.24396851 128.86593683 46.3125 126.8125 C45.65572266 126.11640625 44.99894531 125.4203125 44.32226562 124.703125 C40.46188436 120.5955272 36.69352571 116.42653089 32.99829102 112.16992188 C30.670378 109.50624881 28.2756676 106.91086964 25.875 104.3125 C22.83531004 101.01297223 19.81341941 97.70298393 16.875 94.3125 C13.51177362 90.43432987 10.04164329 86.65722189 6.56689453 82.87939453 C2.13276372 78.05665109 -2.2501824 73.1890888 -6.625 68.3125 C-8.12471128 66.64557353 -9.62471321 64.97890851 -11.125 63.3125 C-11.86878906 62.48492187 -12.61257813 61.65734375 -13.37890625 60.8046875 C-14.86127852 59.15989879 -16.34817544 57.51917526 -17.83984375 55.8828125 C-20.11951701 53.37477127 -22.37725159 50.84919102 -24.625 48.3125 C-25.06054199 47.82458984 -25.49608398 47.33667969 -25.94482422 46.83398438 C-33.22971099 38.62316319 -38.33932123 32.18914333 -37.90234375 20.7578125 C-36.93786323 12.25408287 -32.46652079 6.2566222 -25.91796875 0.921875 C-18.74401335 -3.51691222 -7.54580312 -3.51468016 0 0 Z " fill="#70C7F1" transform="translate(834.625,288.6875)"/>
<path d="M0 0 C6.63104911 4.31505769 11.91755222 10.3388577 14.125 18 C15.98659898 27.86473476 11.65008873 36.69371949 8.06103516 45.66015625 C6.72987145 48.98771832 5.45167824 52.33401332 4.1875 55.6875 C3.95095703 56.31052002 3.71441406 56.93354004 3.47070312 57.57543945 C0.77199881 64.77702803 -1.60600296 72.0885715 -3.98413086 79.40112305 C-5.77357104 84.86489252 -7.7100918 90.21629021 -9.88378906 95.53857422 C-11.59110547 99.7782698 -13.13418871 104.07699895 -14.6875 108.375 C-15.20896606 109.81262695 -15.20896606 109.81262695 -15.7409668 111.27929688 C-17.93227326 117.33846645 -20.07510976 123.41294742 -22.1875 129.5 C-25.10137566 137.88588284 -28.12824401 146.22866018 -31.1875 154.5625 C-31.42047791 155.19743378 -31.65345581 155.83236755 -31.89349365 156.48654175 C-34.46401431 163.48801209 -37.05170752 170.48277738 -39.6640625 177.46875 C-40.10967529 178.66298584 -40.55528809 179.85722168 -41.0144043 181.08764648 C-41.84841545 183.32019882 -42.68555475 185.55158644 -43.52661133 187.78149414 C-45.91142575 194.1659931 -47.99416203 200.58934315 -49.95849609 207.11474609 C-51.04843194 210.5459826 -52.41302334 213.71153238 -53.875 217 C-55.02989165 220.12839559 -56.10655448 223.28291013 -57.1875 226.4375 C-70.30002518 264.28819635 -70.30002518 264.28819635 -80.375 270.5 C-87.2505314 273.46958749 -95.87425799 273.43670159 -102.85546875 270.9296875 C-109.75828279 267.10755446 -114.24119517 261.93598436 -117.25 254.6875 C-119.06869428 243.95720375 -116.88623739 235.88536477 -112.9375 225.875 C-112.4275329 224.54128725 -111.91959056 223.20679872 -111.41357422 221.87158203 C-110.39065403 219.17595376 -109.36018344 216.48342107 -108.32373047 213.79296875 C-106.29887481 208.51698538 -104.39691449 203.19806938 -102.5 197.875 C-101.76610195 195.83055789 -101.03171027 193.78629293 -100.296875 191.7421875 C-99.91208984 190.6706543 -99.52730469 189.59912109 -99.13085938 188.49511719 C-96.67546848 181.66164596 -94.21409392 174.83033739 -91.75 168 C-91.48018311 167.25192078 -91.21036621 166.50384155 -90.93237305 165.73309326 C-87.6277456 156.57446352 -84.30352629 147.42323946 -80.953125 138.28125 C-80.62325592 137.38100098 -80.29338684 136.48075195 -79.95352173 135.55322266 C-78.35929243 131.20385916 -76.76298746 126.85527228 -75.16357422 122.5078125 C-71.50255691 112.54177565 -67.94352532 102.54442039 -64.45117188 92.51806641 C-62.52173758 86.97912567 -60.55227238 81.45503542 -58.5625 75.9375 C-58.19205566 74.90858643 -57.82161133 73.87967285 -57.43994141 72.81958008 C-54.17743915 63.78406852 -50.83469708 54.77898827 -47.47875977 45.77783203 C-44.60234745 38.03855039 -41.82555496 30.27062847 -39.20654297 22.44018555 C-35.57640666 11.79077668 -31.49133593 5.02169439 -21.6875 -0.9375 C-14.46657435 -2.94988912 -6.84009602 -3.46689798 0 0 Z " fill="#F098C0" transform="translate(762.875,297)"/>
</svg>
