<?xml version="1.0" encoding="UTF-8"?>
<svg version="1.1" xmlns="http://www.w3.org/2000/svg" width="1000" height="1000">
<path d="M0 0 C4.74447321 0.00230804 9.48894311 -0.00125176 14.2334156 -0.00397992 C23.47833516 -0.00838002 32.7232465 -0.00748714 41.96816635 -0.00456728 C49.49522277 -0.0022903 57.02227691 -0.00201055 64.54933357 -0.0030911 C65.62882688 -0.00324433 66.70832018 -0.00339756 67.82052541 -0.00355544 C70.01486365 -0.00387523 72.20920189 -0.00419944 74.40354013 -0.00452803 C94.88342698 -0.00736594 115.36330933 -0.00412245 135.84319544 0.00127234 C153.33944133 0.00573883 170.83568058 0.00496242 188.33192635 0.00035357 C208.7485725 -0.00502219 229.16521473 -0.00709141 249.5818615 -0.00403416 C251.76722654 -0.00371568 253.95259158 -0.00340131 256.13795662 -0.0030911 C257.74997865 -0.00285968 257.74997865 -0.00285968 259.39456677 -0.0026236 C266.89504991 -0.00176741 274.39553051 -0.00320174 281.89601326 -0.00557065 C291.0616563 -0.0084024 300.2272908 -0.00756033 309.39293289 -0.00228991 C314.05131817 0.00030224 318.70968931 0.00143043 323.36807442 -0.00193906 C340.69297767 -0.01334741 358.00656734 0.0535953 375.32509041 0.56068683 C377.26226244 0.61564832 377.26226244 0.61564832 379.23856926 0.67172015 C450.67709559 3.01659382 523.63501689 21.65287502 576.3436451 72.13072467 C576.84251228 72.60236041 577.34137947 73.07399615 577.85536385 73.55992389 C585.84998799 81.14608234 592.86581274 89.21521745 599.3436451 98.13072467 C599.81769783 98.78218463 600.29175056 99.43364459 600.78016853 100.10484576 C636.61144888 150.04603911 651.5299956 214.57980472 651.48408699 275.41244769 C651.48854367 277.30255898 651.48854367 277.30255898 651.49309039 279.23085433 C651.50105514 282.68526806 651.50294399 286.1396609 651.50368786 289.59408271 C651.50555717 293.33748303 651.51311386 297.08087296 651.51982307 300.82426715 C651.53333425 308.99261298 651.53942048 317.16095385 651.54383373 325.32930899 C651.5466098 330.44637903 651.55084966 335.56344722 651.55533791 340.680516 C651.56752373 354.8945031 651.57782271 369.10848872 651.581213 383.32248092 C651.58143256 384.2301179 651.58165213 385.13775488 651.58187835 386.07289601 C651.58209663 386.98251219 651.5823149 387.89212838 651.5825398 388.82930869 C651.58298324 390.67204956 651.5834298 392.51479044 651.58387947 394.35753131 C651.5841009 395.27156386 651.58432233 396.18559641 651.58455047 397.12732691 C651.58848827 411.89769653 651.60591419 426.66801651 651.62923899 441.438367 C651.65308457 456.66361893 651.66542089 471.8888461 651.66658092 487.11411697 C651.66749058 495.63779705 651.67306108 504.16141252 651.69140053 512.68507457 C651.70698142 519.95146397 651.71181836 527.21776882 651.70366243 534.4841718 C651.69981759 538.17618409 651.70037271 541.86802711 651.71471977 545.56001735 C651.90915866 598.79112419 643.97373667 652.94137815 620.3436451 701.13072467 C619.94919197 701.93880572 619.55473885 702.74688678 619.1483326 703.57945514 C613.46148472 715.10220133 607.04768457 725.8440223 599.3436451 736.13072467 C598.86089119 736.77573932 598.37813728 737.42075397 597.88075447 738.08531451 C585.52690032 754.36147688 571.03373006 769.28553834 554.3436451 781.13072467 C553.75019295 781.55257037 553.1567408 781.97441607 552.54530525 782.40904498 C543.18965905 788.98408876 533.44595442 794.78412511 523.3436451 800.13072467 C522.69137947 800.48457232 522.03911385 800.83841998 521.3670826 801.20299029 C488.50853724 818.8241906 450.03648798 826.95724093 413.3436451 831.13072467 C412.62504311 831.2149367 411.90644112 831.29914874 411.16606331 831.38591266 C398.95604493 832.77987633 386.76662174 833.35140861 374.48817635 833.62291217 C373.37615884 833.64806399 373.37615884 833.64806399 372.24167633 833.67372394 C365.30976871 833.82871911 358.37766877 833.97018093 351.44496346 834.08433795 C347.60658802 834.14838354 343.76896393 834.23093023 339.93120575 834.32472873 C338.49186048 834.35635284 337.0523466 834.38118276 335.61275864 834.39854312 C324.73352454 834.53204026 315.56752735 836.21723801 306.1561451 841.88072467 C305.42009041 842.30869342 304.68403572 842.73666217 303.92567635 843.17759967 C297.04994431 848.37860726 291.80725353 854.83592381 286.8436451 861.81822467 C285.62652823 863.5003971 284.40771293 865.18134167 283.1873951 866.86119342 C282.55962166 867.72663775 281.93184822 868.59208209 281.28505135 869.48375201 C278.03510605 873.91482682 274.68790938 878.27066031 271.3436451 882.63072467 C266.27638706 889.24961793 261.2693711 895.90583611 256.3436451 902.63072467 C250.71235089 910.31715929 244.97037055 917.91319435 239.18153572 925.48155475 C235.03575279 930.9029243 230.92498865 936.34822726 226.8436451 941.81822467 C212.24930626 961.31033286 196.58210145 978.64248493 171.3436451 983.13072467 C150.85850563 984.96343541 133.52184953 981.00813849 117.0311451 968.19322467 C115.45253777 966.85786984 113.88887768 965.50456231 112.3436451 964.13072467 C111.69266853 963.56224811 111.04169197 962.99377154 110.37098885 962.40806842 C104.05575092 956.50779479 99.18631726 949.4175042 94.08876228 942.48326373 C90.93006472 938.22512023 87.69295635 934.02675462 84.4686451 929.81822467 C78.77517091 922.36881289 73.17342448 914.85936295 67.63319588 907.29551959 C62.61530089 900.46099624 57.4768792 893.72247109 52.32216072 886.99083209 C47.76144533 881.0234529 43.28150625 875.00239244 38.8436451 868.94322467 C22.35515542 846.43870227 22.35515542 846.43870227 -2.6563549 835.13072467 C-5.06952725 834.99649576 -7.48582802 834.91577012 -9.90220451 834.86534381 C-10.6267382 834.84890323 -11.3512719 834.83246264 -12.09776115 834.81552386 C-13.67291815 834.78029336 -15.24812199 834.74711132 -16.82336044 834.71573329 C-19.34793846 834.66509382 -21.87231545 834.60836002 -24.39672661 834.55002093 C-31.57626948 834.38525489 -38.75604055 834.23163026 -45.93589592 834.08116412 C-99.7997352 832.9432756 -99.7997352 832.9432756 -126.3438549 829.31822467 C-127.61946281 829.14718219 -128.89507072 828.97613971 -130.20933342 828.79991412 C-163.70496512 824.16340148 -196.72056606 816.25540675 -226.6563549 800.13072467 C-227.56659416 799.64950152 -227.56659416 799.64950152 -228.49522209 799.1585567 C-241.62736387 792.18144198 -252.86828274 783.33472924 -263.6563549 773.13072467 C-264.52776115 772.32377154 -265.3991674 771.51681842 -266.2969799 770.68541217 C-279.47831171 758.06899459 -289.06865974 743.13099298 -297.6563549 727.13072467 C-298.01149162 726.48184283 -298.36662834 725.832961 -298.73252678 725.16441607 C-319.71041195 686.26536487 -325.91863334 639.441302 -329.6563549 596.13072467 C-329.74643696 595.10423816 -329.83651901 594.07775165 -329.92933083 593.02015948 C-330.95208826 579.31761547 -330.81349819 565.59047021 -330.81639767 551.8580935 C-330.81827 548.03222732 -330.82582799 544.20637124 -330.83253288 540.38051105 C-330.84603094 532.03660224 -330.85212796 523.69269829 -330.85654354 515.34878039 C-330.85932135 510.12080036 -330.86356144 504.89282213 -330.86804771 499.66484332 C-330.88023086 485.13938268 -330.89053099 470.61392346 -330.89392281 456.08845782 C-330.89414237 455.16136937 -330.89436194 454.23428091 -330.89458816 453.27909887 C-330.89480644 452.35000971 -330.89502471 451.42092055 -330.89524961 450.46367717 C-330.89569304 448.58153415 -330.89613961 446.69939113 -330.89658928 444.81724811 C-330.89681071 443.88367457 -330.89703214 442.95010103 -330.89726028 441.98823738 C-330.90119898 426.89857792 -330.91862891 411.80896701 -330.9419488 396.71932626 C-330.9657958 381.16065257 -330.97813073 365.6020031 -330.97929072 350.04331088 C-330.98020021 341.33462887 -330.98576614 332.62601011 -331.00411034 323.91734576 C-331.01969308 316.49439534 -331.02452704 309.0715277 -331.01637223 301.64856398 C-331.01252829 297.87742983 -331.01307791 294.10646139 -331.02742958 290.33534884 C-331.21998228 236.50732527 -323.56824156 181.89474187 -299.6563549 133.13072467 C-299.26190178 132.32264361 -298.86744865 131.51456256 -298.4610424 130.6819942 C-290.64041104 114.83575525 -281.2325312 100.50392472 -269.6563549 87.13072467 C-268.96283928 86.32634967 -268.26932365 85.52197467 -267.5547924 84.69322467 C-217.35711251 27.74167511 -143.50402056 5.99223318 -69.6563549 1.13072467 C-64.70755864 0.88826675 -59.75827861 0.72231179 -54.80576897 0.57631183 C-54.10414776 0.55534029 -53.40252656 0.53436876 -52.67964411 0.51276173 C-35.12124977 -0.00057956 -17.56448522 -0.0127047 0 0 Z " fill="#130F0C" transform="translate(339.6563549041748,7.869275331497192)"/>
<path d="M0 0 C6.87320926 5.90319989 6.87320926 5.90319989 9 9 C8.5751423 12.28516729 7.2246687 14.3671084 5.26171875 16.984375 C4.69404785 17.7477417 4.12637695 18.5111084 3.54150391 19.29760742 C2.62377197 20.51154175 2.62377197 20.51154175 1.6875 21.75 C0.75429932 22.99970581 0.75429932 22.99970581 -0.19775391 24.2746582 C-2.1259929 26.85421022 -4.06270145 29.42724788 -6 32 C-7.19981813 33.60241597 -8.39906201 35.20526212 -9.59765625 36.80859375 C-12.39189646 40.54401317 -15.19367476 44.27365238 -18 48 C-18.42555176 47.6292334 -18.85110352 47.2584668 -19.28955078 46.87646484 C-35.60303281 32.76375966 -51.76896675 23.45776143 -73 19 C-73.63905273 18.8249292 -74.27810547 18.6498584 -74.93652344 18.46948242 C-87.3485074 15.64550642 -101.79294045 17.92235267 -113.5 22.3125 C-117.2262275 24.82770356 -119.97067419 27.94134839 -122 32 C-122.52113171 37.22840334 -122.64273534 41.64036754 -120.375 46.4375 C-111.47520197 56.03991366 -97.07112861 57.59940372 -84.8125 60.5 C-83.54019531 60.80550781 -82.26789063 61.11101562 -80.95703125 61.42578125 C-74.85816332 62.88231983 -68.75604557 64.28479818 -62.61645508 65.55810547 C-41.07823507 70.05506916 -14.1379137 77.5256551 -1.19921875 96.953125 C-0.80347656 97.62859375 -0.40773438 98.3040625 0 99 C0.44730469 99.75796875 0.89460937 100.5159375 1.35546875 101.296875 C9.46148561 116.22525795 10.32655391 133.92857242 5.97729492 150.20629883 C0.77183022 167.40404508 -10.22905719 181.34497591 -25.9921875 190.10742188 C-34.93501671 194.76999361 -44.16344878 198.68617488 -54 201 C-54.6290625 201.14808105 -55.258125 201.29616211 -55.90625 201.44873047 C-94.18790911 209.99768752 -138.56308182 203.03885231 -172.11962891 182.71630859 C-179.80802128 177.75204429 -188.09589774 171.99241604 -194 165 C-194 160.87504733 -193.90075778 160.36822227 -191.61328125 157.3046875 C-191.0929834 156.59683105 -190.57268555 155.88897461 -190.03662109 155.15966797 C-189.46766113 154.40572754 -188.89870117 153.65178711 -188.3125 152.875 C-187.12305158 151.27131252 -185.93426985 149.66713038 -184.74609375 148.0625 C-184.12976074 147.23492187 -183.51342773 146.40734375 -182.87841797 145.5546875 C-180.99846262 142.99790913 -179.16680265 140.41282371 -177.34765625 137.8125 C-176.7652417 136.98508301 -176.18282715 136.15766602 -175.58276367 135.30517578 C-174.4576542 133.7041265 -173.33914326 132.09841675 -172.2277832 130.48779297 C-171.46147583 129.40715576 -171.46147583 129.40715576 -170.6796875 128.3046875 C-170.23351074 127.66515137 -169.78733398 127.02561523 -169.32763672 126.36669922 C-168.8895166 125.91568848 -168.45139648 125.46467773 -168 125 C-165 125 -165 125 -163.01171875 126.87109375 C-162.24472656 127.71800781 -161.47773438 128.56492187 -160.6875 129.4375 C-143.27288122 147.2541879 -116.743961 156.87453777 -92.15332031 157.29174805 C-79.66835317 157.3707786 -68.71512671 157.20967211 -58 150 C-54.08976367 144.71589686 -53.07580393 140.51558227 -54 134 C-55.38908039 129.09736332 -57.21594925 125.94523272 -61.58544922 123.16918945 C-74.39496133 116.96648435 -89.37115712 114.81123721 -103.1875 111.9375 C-161.46165696 99.77824326 -161.46165696 99.77824326 -177.4296875 75.7890625 C-185.8481173 60.83692599 -187.48105399 43.51505406 -183.375 26.9375 C-177.15725443 6.89772769 -162.83604875 -7.48398165 -144.578125 -17.21875 C-138.86237442 -20.06414548 -133.14967642 -22.29578187 -127 -24 C-125.96117676 -24.29414795 -125.96117676 -24.29414795 -124.90136719 -24.59423828 C-83.31312347 -35.77279258 -33.54335702 -27.34927121 0 0 Z " fill="#FDFDFD" transform="translate(623,342)"/>
<path d="M0 0 C67.98 0 135.96 0 206 0 C206 15.18 206 30.36 206 46 C181.91 46 157.82 46 133 46 C133 105.07 133 164.14 133 225 C113.53 225 94.06 225 74 225 C74 165.93 74 106.86 74 46 C49.58 46 25.16 46 0 46 C0 30.82 0 15.64 0 0 Z " fill="#EE97BF" transform="translate(218,317)"/>
<path d="M0 0 C6.65142147 4.71646249 11.96241799 11.16671496 17.23828125 17.328125 C19.6567709 20.10765707 22.15122691 22.81490509 24.6484375 25.5234375 C27.6679091 28.80179333 30.67046422 32.08925324 33.5859375 35.4609375 C36.69807874 39.05302341 39.91715836 42.53895742 43.1484375 46.0234375 C46.93475438 50.10644772 50.66610799 54.22113467 54.30859375 58.43359375 C56.71513906 61.16714309 59.18146946 63.84457756 61.6484375 66.5234375 C65.24859073 70.43322931 68.79261414 74.38210286 72.2734375 78.3984375 C75.16763086 81.67852331 78.14062642 84.88611807 81.10375977 88.10375977 C84.19472313 91.46612996 87.21691368 94.87697033 90.203125 98.33203125 C92.29940456 100.69350281 94.4489288 102.99859691 96.60595703 105.30444336 C113.92841073 123.85743948 113.92841073 123.85743948 113.484375 137.60546875 C112.44937093 146.59556224 106.10492538 152.19021449 100.1484375 158.5234375 C99.0165636 159.80908491 97.89105873 161.10038104 96.7734375 162.3984375 C93.36500167 166.31182679 89.85756235 170.13190719 86.34521484 173.95166016 C80.77053113 180.01592159 75.23003063 186.10998422 69.8359375 192.3359375 C66.16469394 196.55487241 62.35600024 200.64283862 58.55371094 204.74316406 C55.30257271 208.25520868 52.11874534 211.81327708 48.98828125 215.43359375 C46.10858845 218.70458239 43.14489497 221.89846841 40.19287109 225.10400391 C37.66088926 227.85834847 35.15800949 230.6309496 32.7109375 233.4609375 C29.59879198 237.05302836 26.37962288 240.53886463 23.1484375 244.0234375 C19.81860763 247.61600013 16.50038077 251.21255119 13.2734375 254.8984375 C12.73332031 255.51203125 12.19320312 256.125625 11.63671875 256.7578125 C10.655299 257.9221215 9.71314519 259.12084748 8.81640625 260.3515625 C3.93680018 266.82020455 -3.01544515 270.7413 -11.015625 272.03515625 C-17.55873887 272.27534651 -22.42156286 271.16458212 -27.8515625 267.5234375 C-28.7384375 266.9665625 -29.6253125 266.4096875 -30.5390625 265.8359375 C-35.94690012 260.42809988 -38.96883204 253.56398612 -39.2265625 245.9609375 C-38.96761838 233.21174768 -31.08778093 226.10456915 -22.640625 217.453125 C-19.46408422 214.19849256 -16.45189459 210.83299927 -13.47705078 207.39404297 C-11.19256152 204.76506179 -8.83809026 202.20853216 -6.4765625 199.6484375 C-1.56236902 194.30824583 3.30224517 188.92546551 8.1484375 183.5234375 C9.64814878 181.85651103 11.14815071 180.18984601 12.6484375 178.5234375 C13.3909375 177.6984375 14.1334375 176.8734375 14.8984375 176.0234375 C20.1484375 170.19010417 25.3984375 164.35677083 30.6484375 158.5234375 C31.38835937 157.70101562 32.12828125 156.87859375 32.890625 156.03125 C34.41551994 154.33750856 35.94159152 152.64482581 37.46875 150.953125 C38.98070299 149.27716355 40.48866153 147.59758806 41.9921875 145.9140625 C43.40908787 144.34315122 44.84624519 142.79023377 46.3046875 141.2578125 C46.954375 140.56171875 47.6040625 139.865625 48.2734375 139.1484375 C49.14355469 138.23964844 49.14355469 138.23964844 50.03125 137.3125 C51.34102247 135.59264461 51.34102247 135.59264461 51.0546875 133.53125 C49.92611656 131.03088163 48.5269679 129.64546204 46.5234375 127.7734375 C43.20158145 124.57504866 40.13426154 121.28270206 37.12890625 117.7890625 C34.68237982 114.99027487 32.16767029 112.25653933 29.6484375 109.5234375 C26.04808736 105.61382884 22.50425677 101.66476743 19.0234375 97.6484375 C16.12924414 94.36835169 13.15624858 91.16075693 10.19311523 87.94311523 C7.66103634 85.18870322 5.15808482 82.41601251 2.7109375 79.5859375 C-0.40120374 75.99385159 -3.62028336 72.50791758 -6.8515625 69.0234375 C-10.63922376 64.93897756 -14.3766401 60.8271371 -18.01171875 56.60546875 C-19.93277991 54.43152905 -21.91320044 52.31860455 -23.89868164 50.20361328 C-33.19515664 40.25258896 -39.36060163 32.69762683 -39.1875 18.58984375 C-38.33538224 10.81179211 -33.66682207 5.83967701 -27.9140625 0.93359375 C-20.08483128 -4.41934653 -8.32643086 -4.36441171 0 0 Z " fill="#6FC5F0" transform="translate(835.8515625,289.4765625)"/>
<path d="M0 0 C6.80652671 3.68643958 10.55881383 9.16450267 13.95703125 15.9609375 C14.72420919 24.2736504 15.27291216 32.19240943 10.26171875 39.265625 C5.91507694 44.34898576 1.36433883 49.22835868 -3.2890625 54.03125 C-6.42903025 57.28072321 -9.4179158 60.6346932 -12.37524414 64.05029297 C-14.87129518 66.90991754 -17.45514656 69.68456724 -20.04296875 72.4609375 C-23.83034831 76.54293649 -27.5606752 80.65867626 -31.203125 84.87109375 C-33.60967031 87.60464309 -36.07600071 90.28207756 -38.54296875 92.9609375 C-41.58187052 96.26120626 -44.60452975 99.57043097 -47.54296875 102.9609375 C-50.4814105 106.35144721 -53.504175 109.66056635 -56.54296875 112.9609375 C-60.78212577 117.56697221 -64.94589481 122.22827929 -69.04296875 126.9609375 C-70.3547359 128.46157842 -71.66722661 129.96158719 -72.98046875 131.4609375 C-73.86025391 132.46640625 -73.86025391 132.46640625 -74.7578125 133.4921875 C-75.18191406 133.976875 -75.60601562 134.4615625 -76.04296875 134.9609375 C-74.67686607 137.99820708 -73.11223068 140.17008776 -70.8125 142.5703125 C-70.17376953 143.24320313 -69.53503906 143.91609375 -68.87695312 144.609375 C-68.20986328 145.30289063 -67.54277344 145.99640625 -66.85546875 146.7109375 C-62.36518626 151.4112133 -57.96006833 156.1512749 -53.7019043 161.06347656 C-51.2070402 163.9170577 -48.62716904 166.68845303 -46.04296875 169.4609375 C-42.25558919 173.54293649 -38.5252623 177.65867626 -34.8828125 181.87109375 C-32.47626754 184.60464269 -30.00995431 187.28209407 -27.54296875 189.9609375 C-24.52370379 193.23948855 -21.52094737 196.52674707 -18.60546875 199.8984375 C-15.49331427 203.4905387 -12.27395176 206.97616574 -9.04296875 210.4609375 C-4.62976985 215.22749073 -0.23629753 219.99800956 3.95703125 224.9609375 C4.65957031 225.78464844 5.36210937 226.60835937 6.0859375 227.45703125 C6.80652344 228.32457031 7.52710938 229.19210937 8.26953125 230.0859375 C8.92566406 230.87226562 9.58179688 231.65859375 10.2578125 232.46875 C14.92329123 239.31145214 14.67029869 246.97782879 13.95703125 254.9609375 C12.27038226 261.6328085 7.55215367 266.20435442 1.95703125 269.9609375 C-4.76264864 273.37526134 -12.29489733 274.42758046 -19.546875 272.1875 C-29.02721685 268.00368716 -35.53110907 259.86213139 -42.140625 252.1484375 C-44.51733143 249.41546912 -46.96489962 246.75010907 -49.41796875 244.0859375 C-54.3312349 238.74488484 -59.1967647 233.36297857 -64.04296875 227.9609375 C-65.54268003 226.29401103 -67.04268196 224.62734601 -68.54296875 222.9609375 C-71.54296875 219.62760417 -74.54296875 216.29427083 -77.54296875 212.9609375 C-78.66058594 211.71957031 -78.66058594 211.71957031 -79.80078125 210.453125 C-81.27589493 208.81353871 -82.74988527 207.17294095 -84.22265625 205.53125 C-88.34394643 200.9406314 -92.49170663 196.37646643 -96.66796875 191.8359375 C-100.22549974 187.96725928 -103.7258645 184.05759625 -107.16796875 180.0859375 C-109.58847447 177.34269768 -112.06523375 174.65233498 -114.54296875 171.9609375 C-118.77909655 167.35231644 -122.99492936 162.73650471 -127.04296875 157.9609375 C-127.74679688 157.1359375 -128.450625 156.3109375 -129.17578125 155.4609375 C-129.89507812 154.5946875 -130.614375 153.7284375 -131.35546875 152.8359375 C-132.01160156 152.04960937 -132.66773438 151.26328125 -133.34375 150.453125 C-136.6470093 145.60834469 -137.3700906 140.93355119 -137.48046875 135.1484375 C-137.52042969 134.00761719 -137.56039062 132.86679687 -137.6015625 131.69140625 C-136.30051682 123.00260466 -130.64417878 116.96465069 -124.66796875 110.8984375 C-123.38797724 109.57551944 -122.10932743 108.25130188 -120.83203125 106.92578125 C-120.20280762 106.27480469 -119.57358398 105.62382812 -118.92529297 104.953125 C-116.42866285 102.31077717 -114.04758927 99.57730709 -111.66845703 96.8293457 C-109.3828585 94.20217755 -107.02906279 91.64556197 -104.66796875 89.0859375 C-98.61469903 82.5062965 -92.58523274 75.90610485 -86.73046875 69.1484375 C-83.05922519 64.92950259 -79.25053149 60.84153638 -75.44824219 56.74121094 C-72.19461117 53.22647348 -69.00903216 49.66502539 -65.875 46.04296875 C-63.04432614 42.82601957 -60.13529859 39.6812307 -57.23461914 36.52758789 C-53.53952018 32.50859051 -49.87694754 28.46165672 -46.23046875 24.3984375 C-43.21629848 21.03979063 -40.19268614 17.68973504 -37.16015625 14.34765625 C-35.82011657 12.83702111 -34.50844949 11.30030872 -33.23828125 9.73046875 C-24.67563369 -0.78540947 -13.12014299 -4.48004882 0 0 Z " fill="#6FC5F0" transform="translate(196.04296875,288.0390625)"/>
<path d="M0 0 C6.55240773 3.71408619 11.24226318 8.85889755 13.6875 16 C15.27463904 27.57666545 11.83289993 36.99098914 7.8125 47.625 C7.21374867 49.25832693 6.61717882 50.89245508 6.02270508 52.52734375 C4.82643332 55.80906638 3.6190624 59.08633816 2.40185547 62.36035156 C0.85630868 66.52668281 -0.64508136 70.70702632 -2.12109375 74.8984375 C-6.07199437 86.10953364 -10.13880633 97.2625227 -14.41748047 108.35253906 C-17.19008743 115.5794753 -19.74048945 122.87438075 -22.26464844 130.19116211 C-27.52019853 145.4209416 -33.03886678 160.55350015 -38.60546875 175.671875 C-38.99365784 176.72662018 -39.38184692 177.78136536 -39.78179932 178.86807251 C-41.73997034 184.18776545 -43.70056051 189.50654394 -45.66552734 194.82373047 C-50.70907174 208.49520442 -55.56093099 222.22458678 -60.3125 236 C-61.80492738 240.32300717 -63.32203325 244.63581237 -64.875 248.9375 C-65.20951172 249.91138672 -65.54402344 250.88527344 -65.88867188 251.88867188 C-68.79142486 259.85373991 -72.81112882 266.29333992 -80.375 270.5 C-87.5224584 273.24149089 -96.6612321 273.5892685 -103.75 270.5 C-110.09780645 266.65862356 -114.36061319 260.68573039 -117.3125 254 C-119.14983759 242.71142685 -115.50106046 233.10982878 -111.5625 222.75 C-111.01620187 221.26115897 -110.4719209 219.7715762 -109.9296875 218.28125 C-107.45185358 211.51077497 -104.85201203 204.79705287 -102.14404297 198.11523438 C-100.88239463 194.90592103 -99.81418778 191.65536762 -98.75 188.375 C-97.06509855 183.19323751 -95.25554254 178.08847824 -93.3125 173 C-90.17056997 164.72781408 -87.04391477 156.47712657 -84.3671875 148.0390625 C-83.47650905 145.47258905 -82.50549275 142.98294066 -81.48046875 140.46875 C-79.00861874 134.34846764 -76.88095762 128.12053852 -74.75 121.875 C-70.342922 108.99956345 -70.342922 108.99956345 -68.13256836 103.19482422 C-65.68547024 96.64543091 -63.4033618 90.03278165 -61.07226562 83.44140625 C-58.89071693 77.30393845 -56.63117477 71.22329615 -54.17700195 65.18994141 C-52.93361445 62.04021367 -51.90417652 58.85141497 -50.875 55.625 C-49.41239998 51.1199213 -47.83054271 46.71968819 -45.9375 42.375 C-43.14431699 35.92784174 -41.04681908 29.27120863 -38.98681641 22.56005859 C-35.62621982 12.01201322 -30.72794796 4.77379291 -21.125 -0.875 C-13.8772999 -3.0136656 -6.96684074 -3.14357448 0 0 Z " fill="#EE97BF" transform="translate(762.3125,297)"/>
</svg>
