<?xml version="1.0" encoding="utf-8"?>
<svg xmlns="http://www.w3.org/2000/svg" width="512px" height="512px" version="1.1" shape-rendering="geometricPrecision" text-rendering="geometricPrecision" image-rendering="optimizeQuality" fill-rule="evenodd" clip-rule="evenodd" viewBox="0 0 512 512">
  <g id="Layer_x0020_1">
    <path fill-rule="nonzero" d="M 256 0 C 326.691 0 390.692 28.654 437.018 74.982 C 483.346 121.309 512 185.309 512 256 C 512 326.691 483.346 390.692 437.018 437.018 C 390.692 483.346 326.691 512 256 512 C 185.309 512 121.308 483.346 74.982 437.018 C 28.654 390.692 0 326.691 0 256 C 0 185.309 28.654 121.308 74.982 74.982 C 121.309 28.654 185.309 0 256 0 Z M 345.946 174.244 C 328.947 166.462 310.893 160.915 292.472 157.8 C 289.965 162.292 287.67 166.991 285.643 171.724 C 275.851 170.248 265.885 169.493 255.97 169.493 C 246.053 169.493 236.087 170.248 226.292 171.705 C 224.292 166.983 221.968 162.3 219.447 157.799 C 201.005 160.942 182.983 166.502 165.961 174.276 C 132.117 224.342 122.946 273.157 127.532 321.278 C 147.328 335.907 169.56 347.062 193.108 354.192 C 198.396 347.054 203.132 339.456 207.153 331.548 C 199.5 328.701 192.059 325.143 185.027 320.988 C 186.882 319.644 188.697 318.258 190.449 316.913 C 210.945 326.538 233.341 331.559 256 331.559 C 278.66 331.559 301.055 326.538 321.552 316.91 C 323.325 318.358 325.139 319.744 326.974 320.987 C 319.932 325.149 312.463 328.721 304.807 331.575 C 308.832 339.487 313.546 347.074 318.853 354.201 C 342.438 347.09 364.673 335.933 384.473 321.294 L 384.468 321.299 C 389.848 265.494 375.275 217.127 345.946 174.244 Z M 212.952 291.684 C 200.173 291.684 189.616 280.087 189.616 265.819 C 189.616 251.552 199.806 239.852 212.912 239.852 C 226.017 239.852 236.493 251.552 236.269 265.819 C 236.046 280.087 225.977 291.684 212.952 291.684 Z M 299.047 291.684 C 286.247 291.684 275.729 280.087 275.729 265.819 C 275.729 251.552 285.921 239.852 299.047 239.852 C 312.172 239.852 322.567 251.552 322.343 265.819 C 322.119 280.087 312.071 291.684 299.047 291.684 Z M 431.852 79.764 C 389.938 37.851 319.93 6.671 255.969 6.671 C 192.007 6.671 121.505 37.591 79.592 79.504 C 37.679 121.418 6.266 191.903 6.266 255.864 C 6.266 319.826 37.965 390.655 79.878 432.568 C 121.791 474.481 191.904 505.591 255.864 505.591 C 319.827 505.591 390.455 474.073 432.369 432.16 C 474.282 390.247 505.757 319.811 505.757 255.851 C 505.757 191.888 473.765 121.678 431.852 79.764 Z" style="fill: rgb(255, 255, 255);"/>
  </g>
</svg>